<?xml version="1.0" encoding="utf-8"?>
<!-- Generator: Adobe Illustrator 22.0.1, SVG Export Plug-In . SVG Version: 6.00 Build 0)  -->
<svg version="1.1" id="Layer_1" xmlns="http://www.w3.org/2000/svg" xmlns:xlink="http://www.w3.org/1999/xlink" x="0px" y="0px"
	 viewBox="0 0 512 512" style="enable-background:new 0 0 512 512;" xml:space="preserve">
<style type="text/css">
	.st0{fill:#1D66AE;}
	.st1{fill:#FFFFFF;}
	.st2{opacity:0.3;}
	.st3{clip-path:url(#SVGID_2_);}
	.st4{fill:none;stroke:#FFFFFF;stroke-width:0.4242;stroke-miterlimit:10;}
</style>
<path class="st0" d="M509.9,255.4c0,140.1-113.6,253.6-253.7,253.6C116.2,509,2.6,395.4,2.6,255.4C2.6,115.3,116.2,1.7,256.3,1.7
	C396.3,1.7,509.9,115.3,509.9,255.4z"/>
<g>
	<path class="st1" d="M50.1,255.2c0-14.4,3.1-28.3,9.5-41.8c11.5-23,29.3-39,53.4-48.1c9.6-4.1,24-6.1,43.2-6.1h87.1v37.3h-91.8
		c-27.6,0-46.9,11.9-57.8,35.7c-3.4,7.7-5.2,15.4-5.2,23c0,7.7,1.7,15.4,5.2,23c10.9,23.8,30.2,35.7,57.8,35.7H190v37.2h-33.9
		c-19.2,0-33.6-2.1-43.2-6.1c-24.1-9-41.9-25-53.4-48C53.2,283.6,50.1,269.6,50.1,255.2z M142.8,236.7h100.4v114.4h-37.8v-77.5
		h-62.6V236.7z"/>
</g>
<g>
	<path class="st1" d="M306.3,203.3v-43.6h96.9h44.3v144v47.9H315h-44.1V198.8l39.7,0.1V308h96.9V203.3H306.3z"/>
</g>
<g class="st2">
	<defs>
		<path id="SVGID_1_" class="st2" d="M509.9,255.4c0,140.1-113.6,253.6-253.7,253.6C116.2,509,2.6,395.4,2.6,255.4
			C2.6,115.3,116.2,1.7,256.3,1.7C396.3,1.7,509.9,115.3,509.9,255.4z"/>
	</defs>
	<clipPath id="SVGID_2_">
		<use xlink:href="#SVGID_1_"  style="overflow:visible;"/>
	</clipPath>
	<g class="st3">
		<polyline class="st4" points="5.5,49.1 129.8,49.1 144.9,66.7 		"/>
		<path class="st1" d="M155.8,70.9c0,3.7-3,6.7-6.7,6.7c-3.7,0-6.7-3-6.7-6.7c0-3.7,3-6.7,6.7-6.7C152.8,64.2,155.8,67.2,155.8,70.9
			z"/>
		<path class="st1" d="M155.8,108.5c0,3.7-3,6.7-6.7,6.7c-3.7,0-6.7-3-6.7-6.7c0-3.7,3-6.7,6.7-6.7
			C152.8,101.8,155.8,104.8,155.8,108.5z"/>
		<path class="st1" d="M54.2,150.9c0,3.7-3,6.7-6.7,6.7c-3.7,0-6.7-3-6.7-6.7c0-3.7,3-6.7,6.7-6.7C51.2,144.2,54.2,147.2,54.2,150.9
			z"/>
		<path class="st4" d="M33.7,68.7c0,3.7-3,6.7-6.7,6.7c-3.7,0-6.7-3-6.7-6.7c0-3.7,3-6.7,6.7-6.7C30.6,62,33.7,65,33.7,68.7z"/>
		<path class="st1" d="M169.2,57.9c0,3.7-3,6.7-6.7,6.7c-3.7,0-6.7-3-6.7-6.7c0-3.7,3-6.7,6.7-6.7C166.2,51.2,169.2,54.2,169.2,57.9
			z"/>
		<path class="st4" d="M67.2,32.3c0,3.7-3,6.7-6.7,6.7c-3.7,0-6.7-3-6.7-6.7c0-3.7,3-6.7,6.7-6.7C64.2,25.6,67.2,28.6,67.2,32.3z"/>
		<path class="st1" d="M227,29.8c0,3.7-3,6.7-6.7,6.7c-3.7,0-6.7-3-6.7-6.7c0-3.7,3-6.7,6.7-6.7C223.9,23.1,227,26.1,227,29.8z"/>
		<path class="st1" d="M316.3,64.7c0,3.7-3,6.7-6.7,6.7c-3.7,0-6.7-3-6.7-6.7c0-3.7,3-6.7,6.7-6.7C313.3,57.9,316.3,60.9,316.3,64.7
			z"/>
		<path class="st1" d="M269.1,71.4c0,3.7-3,6.7-6.7,6.7c-3.7,0-6.7-3-6.7-6.7c0-3.7,3-6.7,6.7-6.7C266.1,64.7,269.1,67.7,269.1,71.4
			z"/>
		<path class="st4" d="M220.4,169.2c0,3.7-3,6.7-6.7,6.7c-3.7,0-6.7-3-6.7-6.7c0-3.7,3-6.7,6.7-6.7
			C217.4,162.5,220.4,165.5,220.4,169.2z"/>
		<path class="st1" d="M157.1,141.9c0,3.7-3,6.7-6.7,6.7c-3.7,0-6.7-3-6.7-6.7c0-3.7,3-6.7,6.7-6.7
			C154,135.2,157.1,138.2,157.1,141.9z"/>
		<path class="st4" d="M150.3,201.1c0,3.7-3,6.7-6.7,6.7c-3.7,0-6.7-3-6.7-6.7c0-3.7,3-6.7,6.7-6.7
			C147.3,194.4,150.3,197.4,150.3,201.1z"/>
		<path class="st4" d="M92,229.6c0,3.7-3,6.7-6.7,6.7c-3.7,0-6.7-3-6.7-6.7c0-3.7,3-6.7,6.7-6.7C89,222.9,92,225.9,92,229.6z"/>
		<path class="st4" d="M139.4,167.9c0,3.7-3,6.7-6.7,6.7c-3.7,0-6.7-3-6.7-6.7c0-3.7,3-6.7,6.7-6.7
			C136.4,161.2,139.4,164.2,139.4,167.9z"/>
		<path class="st1" d="M127.2,116.1c0,3.7-3,6.7-6.7,6.7c-3.7,0-6.7-3-6.7-6.7c0-3.7,3-6.7,6.7-6.7
			C124.3,109.3,127.2,112.3,127.2,116.1z"/>
		<path class="st1" d="M96.2,116.1c0,3.7-3,6.7-6.7,6.7c-3.7,0-6.7-3-6.7-6.7c0-3.7,3-6.7,6.7-6.7C93.2,109.3,96.2,112.3,96.2,116.1
			z"/>
		<path class="st1" d="M72.7,115.2c0,3.7-3,6.7-6.7,6.7c-3.7,0-6.7-3-6.7-6.7c0-3.7,3-6.7,6.7-6.7C69.7,108.5,72.7,111.5,72.7,115.2
			z"/>
		<line class="st4" x1="66" y1="49.1" x2="66" y2="109.8"/>
		<polyline class="st4" points="72.7,88.4 125.8,88.4 144.9,104.1 		"/>
		<line class="st4" x1="94.9" y1="116.1" x2="115.1" y2="116.1"/>
		<polyline class="st4" points="26.9,73.5 26.9,104.1 47.5,122.8 47.5,148 		"/>
		<polyline class="st4" points="66,32.3 138.2,32.3 159.6,53.7 		"/>
		<line class="st4" x1="5.5" y1="167.9" x2="127.2" y2="167.9"/>
		<polyline class="st4" points="144.9,141.9 105,141.9 79.8,167.9 		"/>
		<polyline class="st4" points="196.9,6.3 196.9,97.8 213.7,119.6 213.7,163.7 		"/>
		<polyline class="st4" points="196.9,49.1 217.1,70.9 257.4,70.9 		"/>
		<polyline class="st4" points="222.5,32.3 238.3,48.1 299.8,49.1 307.3,60 		"/>
		<polyline class="st4" points="-11.2,204 23.2,204 49.6,229.6 81.1,229.6 		"/>
		<polyline class="st4" points="137.8,201.1 94.9,201.1 66.4,229.6 		"/>
		<polyline class="st4" points="492,273.6 367.7,273.6 352.6,291.2 		"/>
		<path class="st4" d="M341.7,295.4c0,3.7,3,6.7,6.7,6.7c3.7,0,6.7-3,6.7-6.7c0-3.7-3-6.7-6.7-6.7
			C344.7,288.7,341.7,291.7,341.7,295.4z"/>
		<path class="st4" d="M341.7,333c0,3.7,3,6.7,6.7,6.7c3.7,0,6.7-3,6.7-6.7c0-3.7-3-6.7-6.7-6.7C344.7,326.3,341.7,329.3,341.7,333z
			"/>
		<path class="st1" d="M443.3,375.4c0,3.7,3,6.7,6.7,6.7c3.7,0,6.7-3,6.7-6.7c0-3.7-3-6.7-6.7-6.7
			C446.3,368.7,443.3,371.7,443.3,375.4z"/>
		<path class="st1" d="M463.8,293.2c0,3.7,3,6.7,6.7,6.7c3.7,0,6.7-3,6.7-6.7c0-3.7-3-6.7-6.7-6.7
			C466.8,286.5,463.8,289.5,463.8,293.2z"/>
		<path class="st4" d="M328.2,282.4c0,3.7,3,6.7,6.7,6.7c3.7,0,6.7-3,6.7-6.7c0-3.7-3-6.7-6.7-6.7
			C331.3,275.7,328.2,278.7,328.2,282.4z"/>
		<path class="st4" d="M430.3,256.8c0,3.7,3,6.7,6.7,6.7c3.7,0,6.7-3,6.7-6.7c0-3.7-3-6.7-6.7-6.7
			C433.3,250.1,430.3,253.1,430.3,256.8z"/>
		<path class="st4" d="M270.5,254.3c0,3.7,3,6.7,6.7,6.7c3.7,0,6.7-3,6.7-6.7c0-3.7-3-6.7-6.7-6.7
			C273.5,247.6,270.5,250.6,270.5,254.3z"/>
		<path class="st4" d="M178.4,289.1c0,3.7,3,6.7,6.7,6.7c3.7,0,6.7-3,6.7-6.7c0-3.7-3-6.7-6.7-6.7
			C181.4,282.4,178.4,285.4,178.4,289.1z"/>
		<path class="st4" d="M228.4,295.9c0,3.7,3,6.7,6.7,6.7c3.7,0,6.7-3,6.7-6.7c0-3.7-3-6.7-6.7-6.7
			C231.4,289.1,228.4,292.1,228.4,295.9z"/>
		<path class="st1" d="M277,393.7c0,3.7,3,6.7,6.7,6.7c3.7,0,6.7-3,6.7-6.7c0-3.7-3-6.7-6.7-6.7C280,386.9,277,390,277,393.7z"/>
		<path class="st1" d="M340.4,366.4c0,3.7,3,6.7,6.7,6.7c3.7,0,6.7-3,6.7-6.7c0-3.7-3-6.7-6.7-6.7
			C343.4,359.7,340.4,362.7,340.4,366.4z"/>
		<path class="st1" d="M347.1,425.6c0,3.7,3,6.7,6.7,6.7c3.7,0,6.7-3,6.7-6.7c0-3.7-3-6.7-6.7-6.7
			C350.1,418.9,347.1,421.9,347.1,425.6z"/>
		<path class="st1" d="M388.7,454.1c0,3.7,3,6.7,6.7,6.7c3.7,0,6.7-3,6.7-6.7c0-3.7-3-6.7-6.7-6.7
			C391.7,447.4,388.7,450.4,388.7,454.1z"/>
		<path class="st1" d="M358,392.4c0,3.7,3,6.7,6.7,6.7c3.7,0,6.7-3,6.7-6.7c0-3.7-3-6.7-6.7-6.7C361,385.7,358,388.7,358,392.4z"/>
		<path class="st4" d="M370.2,340.5c0,3.7,3,6.7,6.7,6.7c3.7,0,6.7-3,6.7-6.7c0-3.7-3-6.7-6.7-6.7
			C373.2,333.8,370.2,336.8,370.2,340.5z"/>
		<path class="st4" d="M401.3,340.5c0,3.7,3,6.7,6.7,6.7c3.7,0,6.7-3,6.7-6.7c0-3.7-3-6.7-6.7-6.7
			C404.3,333.8,401.3,336.8,401.3,340.5z"/>
		<path class="st4" d="M424.8,339.7c0,3.7,3,6.7,6.7,6.7c3.7,0,6.7-3,6.7-6.7c0-3.7-3-6.7-6.7-6.7C427.8,333,424.8,336,424.8,339.7z
			"/>
		<line class="st4" x1="431.5" y1="273.6" x2="431.5" y2="334.3"/>
		<polyline class="st4" points="424.8,312.9 371.7,312.9 352.6,328.6 		"/>
		<line class="st4" x1="402.5" y1="340.5" x2="382.4" y2="340.5"/>
		<polyline class="st4" points="470.6,298 470.6,328.6 450,347.3 450,372.5 		"/>
		<polyline class="st4" points="431.5,256.8 359.3,256.8 337.9,278.2 		"/>
		<line class="st4" x1="492" y1="392.4" x2="370.2" y2="392.4"/>
		<polyline class="st4" points="352.6,366.4 392.5,366.4 417.7,392.4 		"/>
		<polyline class="st4" points="300.5,230.8 300.5,322.3 283.8,344.1 283.8,388.2 		"/>
		<polyline class="st4" points="300.5,273.6 280.4,295.4 240.1,295.4 		"/>
		<polyline class="st4" points="272.2,256.8 256.4,272.5 194.9,273.6 187.4,284.5 		"/>
		<polyline class="st4" points="492,428.5 457.5,428.5 431.1,454.1 399.6,454.1 		"/>
		<polyline class="st4" points="359.7,425.6 402.5,425.6 431.1,454.1 		"/>
		<polyline class="st4" points="553.5,169.4 429.2,169.4 414.1,151.8 		"/>
		<path class="st1" d="M403.2,147.6c0-3.7,3-6.7,6.7-6.7c3.7,0,6.7,3,6.7,6.7c0,3.7-3,6.7-6.7,6.7
			C406.2,154.3,403.2,151.3,403.2,147.6z"/>
		<path class="st1" d="M403.2,110c0-3.7,3-6.7,6.7-6.7c3.7,0,6.7,3,6.7,6.7c0,3.7-3,6.7-6.7,6.7C406.2,116.8,403.2,113.7,403.2,110z
			"/>
		<path class="st4" d="M504.8,67.6c0-3.7,3-6.7,6.7-6.7c3.7,0,6.7,3,6.7,6.7c0,3.7-3,6.7-6.7,6.7C507.8,74.4,504.8,71.3,504.8,67.6z
			"/>
		<path class="st1" d="M389.8,160.6c0-3.7,3-6.7,6.7-6.7c3.7,0,6.7,3,6.7,6.7c0,3.7-3,6.7-6.7,6.7
			C392.8,167.3,389.8,164.3,389.8,160.6z"/>
		<path class="st1" d="M491.8,186.2c0-3.7,3-6.7,6.7-6.7c3.7,0,6.7,3,6.7,6.7c0,3.7-3,6.7-6.7,6.7
			C494.8,192.9,491.8,189.9,491.8,186.2z"/>
		<path class="st4" d="M332,188.7c0-3.7,3-6.7,6.7-6.7c3.7,0,6.7,3,6.7,6.7c0,3.7-3,6.7-6.7,6.7C335,195.5,332,192.5,332,188.7z"/>
		<path class="st1" d="M242.7,153.9c0-3.7,3-6.7,6.7-6.7c3.7,0,6.7,3,6.7,6.7c0,3.7-3,6.7-6.7,6.7
			C245.7,160.6,242.7,157.6,242.7,153.9z"/>
		<path class="st1" d="M289.9,147.2c0-3.7,3-6.7,6.7-6.7c3.7,0,6.7,3,6.7,6.7c0,3.7-3,6.7-6.7,6.7
			C292.9,153.9,289.9,150.9,289.9,147.2z"/>
		<path class="st1" d="M338.5,49.4c0-3.7,3-6.7,6.7-6.7c3.7,0,6.7,3,6.7,6.7c0,3.7-3,6.7-6.7,6.7C341.6,56.1,338.5,53.1,338.5,49.4z
			"/>
		<path class="st1" d="M401.9,76.7c0-3.7,3-6.7,6.7-6.7c3.7,0,6.7,3,6.7,6.7c0,3.7-3,6.7-6.7,6.7C404.9,83.4,401.9,80.4,401.9,76.7z
			"/>
		<path class="st4" d="M408.6,17.5c0-3.7,3-6.7,6.7-6.7c3.7,0,6.7,3,6.7,6.7c0,3.7-3,6.7-6.7,6.7C411.7,24.2,408.6,21.2,408.6,17.5z
			"/>
		<path class="st4" d="M419.5,50.6c0-3.7,3-6.7,6.7-6.7c3.7,0,6.7,3,6.7,6.7c0,3.7-3,6.7-6.7,6.7C422.6,57.4,419.5,54.4,419.5,50.6z
			"/>
		<path class="st1" d="M431.7,102.5c0-3.7,3-6.7,6.7-6.7c3.7,0,6.7,3,6.7,6.7c0,3.7-3,6.7-6.7,6.7
			C434.7,109.2,431.7,106.2,431.7,102.5z"/>
		<path class="st4" d="M462.8,102.5c0-3.7,3-6.7,6.7-6.7c3.7,0,6.7,3,6.7,6.7c0,3.7-3,6.7-6.7,6.7
			C465.8,109.2,462.8,106.2,462.8,102.5z"/>
		<path class="st4" d="M486.3,103.3c0-3.7,3-6.7,6.7-6.7c3.7,0,6.7,3,6.7,6.7c0,3.7-3,6.7-6.7,6.7C489.3,110,486.3,107,486.3,103.3z
			"/>
		<line class="st4" x1="493" y1="169.4" x2="493" y2="108.8"/>
		<polyline class="st4" points="486.3,130.2 433.2,130.2 414.1,114.4 		"/>
		<line class="st4" x1="464" y1="102.5" x2="443.9" y2="102.5"/>
		<polyline class="st4" points="532.1,145.1 532.1,114.4 511.5,95.8 511.5,70.5 		"/>
		<polyline class="st4" points="493,186.2 420.8,186.2 399.4,164.8 		"/>
		<line class="st4" x1="553.5" y1="50.6" x2="431.7" y2="50.6"/>
		<polyline class="st4" points="414.1,76.7 454,76.7 479.2,50.6 		"/>
		<polyline class="st4" points="362,212.2 362,120.7 345.3,98.9 345.3,54.8 		"/>
		<polyline class="st4" points="362,169.4 341.9,147.6 301.6,147.6 		"/>
		<polyline class="st4" points="336.5,186.2 320.7,170.5 259.2,169.4 251.7,158.5 		"/>
		<polyline class="st4" points="553.5,14.5 519,14.5 492.6,-11.1 461.1,-11.1 		"/>
		<polyline class="st4" points="421.2,17.5 464,17.5 492.6,-11.1 		"/>
		<polyline class="st4" points="1.4,441.4 125.6,441.4 140.7,423.8 		"/>
		<path class="st1" d="M151.6,419.6c0-3.7-3-6.7-6.7-6.7c-3.7,0-6.7,3-6.7,6.7c0,3.7,3,6.7,6.7,6.7
			C148.7,426.3,151.6,423.3,151.6,419.6z"/>
		<path class="st1" d="M151.6,382c0-3.7-3-6.7-6.7-6.7c-3.7,0-6.7,3-6.7,6.7c0,3.7,3,6.7,6.7,6.7C148.7,388.7,151.6,385.7,151.6,382
			z"/>
		<path class="st1" d="M50.1,339.6c0-3.7-3-6.7-6.7-6.7c-3.7,0-6.7,3-6.7,6.7c0,3.7,3,6.7,6.7,6.7C47.1,346.3,50.1,343.3,50.1,339.6
			z"/>
		<path class="st4" d="M29.5,421.8c0-3.7-3-6.7-6.7-6.7c-3.7,0-6.7,3-6.7,6.7c0,3.7,3,6.7,6.7,6.7C26.5,428.6,29.5,425.5,29.5,421.8
			z"/>
		<path class="st1" d="M165.1,432.6c0-3.7-3-6.7-6.7-6.7c-3.7,0-6.7,3-6.7,6.7c0,3.7,3,6.7,6.7,6.7
			C162.1,439.3,165.1,436.3,165.1,432.6z"/>
		<path class="st4" d="M63.1,458.2c0-3.7-3-6.7-6.7-6.7c-3.7,0-6.7,3-6.7,6.7c0,3.7,3,6.7,6.7,6.7C60.1,464.9,63.1,461.9,63.1,458.2
			z"/>
		<path class="st1" d="M222.8,460.7c0-3.7-3-6.7-6.7-6.7c-3.7,0-6.7,3-6.7,6.7c0,3.7,3,6.7,6.7,6.7
			C219.8,467.4,222.8,464.4,222.8,460.7z"/>
		<path class="st1" d="M312.2,425.9c0-3.7-3-6.7-6.7-6.7c-3.7,0-6.7,3-6.7,6.7c0,3.7,3,6.7,6.7,6.7
			C309.2,432.6,312.2,429.6,312.2,425.9z"/>
		<path class="st1" d="M265,419.1c0-3.7-3-6.7-6.7-6.7c-3.7,0-6.7,3-6.7,6.7c0,3.7,3,6.7,6.7,6.7C262,425.9,265,422.8,265,419.1z"/>
		<path class="st4" d="M216.3,321.3c0-3.7-3-6.7-6.7-6.7c-3.7,0-6.7,3-6.7,6.7c0,3.7,3,6.7,6.7,6.7
			C213.3,328,216.3,325.1,216.3,321.3z"/>
		<path class="st4" d="M152.9,348.6c0-3.7-3-6.7-6.7-6.7c-3.7,0-6.7,3-6.7,6.7c0,3.7,3,6.7,6.7,6.7
			C149.9,355.3,152.9,352.3,152.9,348.6z"/>
		<path class="st4" d="M101.5,289.4c0-3.7-3-6.7-6.7-6.7c-3.7,0-6.7,3-6.7,6.7c0,3.7,3,6.7,6.7,6.7
			C98.5,296.2,101.5,293.1,101.5,289.4z"/>
		<path class="st4" d="M87.9,260.9c0-3.7-3-6.7-6.7-6.7s-6.7,3-6.7,6.7c0,3.7,3,6.7,6.7,6.7S87.9,264.6,87.9,260.9z"/>
		<path class="st4" d="M135.3,322.6c0-3.7-3-6.7-6.7-6.7c-3.7,0-6.7,3-6.7,6.7c0,3.7,3,6.7,6.7,6.7
			C132.3,329.3,135.3,326.3,135.3,322.6z"/>
		<path class="st1" d="M123.1,374.4c0-3.7-3-6.7-6.7-6.7c-3.7,0-6.7,3-6.7,6.7c0,3.7,3,6.7,6.7,6.7
			C120.1,381.1,123.1,378.1,123.1,374.4z"/>
		<path class="st1" d="M92,374.4c0-3.7-3-6.7-6.7-6.7c-3.7,0-6.7,3-6.7,6.7c0,3.7,3,6.7,6.7,6.7C89,381.1,92,378.1,92,374.4z"/>
		<path class="st1" d="M68.5,375.3c0-3.7-3-6.7-6.7-6.7c-3.7,0-6.7,3-6.7,6.7c0,3.7,3,6.7,6.7,6.7C65.5,382,68.5,379,68.5,375.3z"/>
		<line class="st4" x1="61.8" y1="441.4" x2="61.8" y2="380.7"/>
		<polyline class="st4" points="68.5,402.2 121.6,402.2 140.7,386.4 		"/>
		<line class="st4" x1="90.8" y1="374.4" x2="110.9" y2="374.4"/>
		<polyline class="st4" points="22.8,417 22.8,386.4 43.4,367.7 43.4,342.5 		"/>
		<polyline class="st4" points="61.8,458.2 134,458.2 155.4,436.8 		"/>
		<line class="st4" x1="1.4" y1="322.6" x2="123.1" y2="322.6"/>
		<polyline class="st4" points="140.7,348.6 100.9,348.6 75.7,322.6 		"/>
		<polyline class="st4" points="192.8,484.2 192.8,392.7 209.6,370.9 209.6,326.8 		"/>
		<polyline class="st4" points="192.8,441.4 212.9,419.6 253.2,419.6 		"/>
		<polyline class="st4" points="218.4,458.2 234.1,442.4 295.6,441.4 303.2,430.5 		"/>
		<polyline class="st4" points="-60.1,286.5 -25.6,286.5 0.8,260.9 32.3,260.9 		"/>
		<polyline class="st4" points="88.9,289.4 46.1,289.4 17.6,260.9 		"/>
	</g>
</g>
</svg>
