<?xml version="1.0" encoding="utf-8"?>
<!-- Generator: Adobe Illustrator 16.0.5, SVG Export Plug-In . SVG Version: 6.00 Build 0)  -->
<!DOCTYPE svg PUBLIC "-//W3C//DTD SVG 1.1//EN" "http://www.w3.org/Graphics/SVG/1.1/DTD/svg11.dtd">
<svg version="1.1" id="Layer_1" xmlns="http://www.w3.org/2000/svg" xmlns:xlink="http://www.w3.org/1999/xlink" x="0px" y="0px"
	 width="250px" height="100px" viewBox="0 0 250 100" enable-background="new 0 0 250 100" xml:space="preserve">
<rect id="Background" y="-1.833" fill="#262A42" width="250" height="103.666"/>
<g>
	<circle fill="#1E66AF" cx="63.539" cy="50.001" r="38.539"/>
	<g>
		<path fill="#FFFFFF" d="M32.213,49.981c0-2.183,0.477-4.303,1.436-6.354c1.743-3.492,4.446-5.928,8.115-7.305
			c1.456-0.621,3.644-0.929,6.557-0.929h13.237v5.667H47.611c-4.197,0-7.124,1.806-8.782,5.42c-0.524,1.175-0.789,2.342-0.789,3.501
			c0,1.173,0.265,2.339,0.789,3.5c1.658,3.617,4.585,5.426,8.782,5.426h5.853v5.646h-5.143c-2.914,0-5.101-0.312-6.557-0.931
			c-3.669-1.364-6.373-3.793-8.115-7.286C32.689,54.287,32.213,52.17,32.213,49.981z M46.298,47.169h15.26v17.384h-5.748V52.776
			h-9.512V47.169z"/>
	</g>
	<g>
		<path fill="#FFFFFF" d="M71.137,42.087v-6.622h14.718h6.733v21.88v7.28H72.455h-6.697v-23.21l6.039,0.013v16.577h14.718V42.087
			H71.137z"/>
	</g>
	<g opacity="0.3">
		<defs>
			<circle id="SVGID_1_" opacity="0.3" cx="63.539" cy="50.001" r="38.539"/>
		</defs>
		<clipPath id="SVGID_2_">
			<use xlink:href="#SVGID_1_"  overflow="visible"/>
		</clipPath>
		<g clip-path="url(#SVGID_2_)">
			<polyline fill="none" stroke="#FFFFFF" stroke-width="0.4242" stroke-miterlimit="10" points="25.44,18.666 44.319,18.666 
				46.618,21.343 			"/>
			<circle fill="#FFFFFF" cx="47.255" cy="21.982" r="1.02"/>
			<path fill="#FFFFFF" d="M48.275,27.688c0,0.567-0.459,1.022-1.022,1.022c-0.562,0-1.019-0.455-1.019-1.022
				c0-0.562,0.457-1.019,1.019-1.019C47.816,26.67,48.275,27.127,48.275,27.688z"/>
			<circle fill="#FFFFFF" cx="31.82" cy="34.131" r="1.02"/>
			<path fill="none" stroke="#FFFFFF" stroke-width="0.4242" stroke-miterlimit="10" d="M29.717,21.635
				c0,0.567-0.459,1.022-1.023,1.022c-0.562,0-1.019-0.455-1.019-1.022c0-0.562,0.457-1.018,1.019-1.018
				C29.258,20.617,29.717,21.072,29.717,21.635z"/>
			<path fill="#FFFFFF" d="M50.316,20.004c0,0.563-0.461,1.023-1.022,1.023c-0.563,0-1.019-0.46-1.019-1.023
				c0-0.562,0.456-1.017,1.019-1.017C49.855,18.987,50.316,19.442,50.316,20.004z"/>
			<circle fill="none" stroke="#FFFFFF" stroke-width="0.4242" stroke-miterlimit="10" cx="33.795" cy="16.115" r="1.021"/>
			<path fill="#FFFFFF" d="M59.085,15.732c0,0.563-0.457,1.018-1.023,1.018c-0.562,0-1.017-0.454-1.017-1.018
				c0-0.562,0.455-1.022,1.017-1.022C58.628,14.71,59.085,15.17,59.085,15.732z"/>
			<path fill="#FFFFFF" d="M72.666,21.027c0,0.563-0.456,1.018-1.022,1.018c-0.563,0-1.019-0.454-1.019-1.018
				c0-0.566,0.456-1.023,1.019-1.023C72.21,20.004,72.666,20.461,72.666,21.027z"/>
			<circle fill="#FFFFFF" cx="64.468" cy="22.045" r="1.021"/>
			<path fill="none" stroke="#FFFFFF" stroke-width="0.4242" stroke-miterlimit="10" d="M58.095,36.906
				c0,0.562-0.456,1.021-1.017,1.021c-0.568,0-1.022-0.459-1.022-1.021c0-0.563,0.454-1.019,1.022-1.019
				C57.64,35.888,58.095,36.343,58.095,36.906z"/>
			<path fill="#FFFFFF" d="M48.467,32.763c0,0.562-0.459,1.018-1.022,1.018c-0.562,0-1.018-0.455-1.018-1.018
				c0-0.567,0.457-1.022,1.018-1.022C48.007,31.74,48.467,32.195,48.467,32.763z"/>
			<circle fill="none" stroke="#FFFFFF" stroke-width="0.4242" stroke-miterlimit="10" cx="46.424" cy="41.752" r="1.02"/>
			<path fill="none" stroke="#FFFFFF" stroke-width="0.4242" stroke-miterlimit="10" d="M38.587,46.09
				c0,0.562-0.456,1.022-1.022,1.022c-0.563,0-1.019-0.46-1.019-1.022c0-0.563,0.456-1.021,1.019-1.021
				C38.131,45.068,38.587,45.526,38.587,46.09z"/>
			<path fill="none" stroke="#FFFFFF" stroke-width="0.4242" stroke-miterlimit="10" d="M45.786,36.714
				c0,0.563-0.455,1.023-1.018,1.023c-0.567,0-1.022-0.46-1.022-1.023c0-0.562,0.456-1.021,1.022-1.021
				C45.331,35.693,45.786,36.151,45.786,36.714z"/>
			<path fill="#FFFFFF" d="M43.937,28.84c0,0.562-0.456,1.018-1.019,1.018c-0.567,0-1.021-0.456-1.021-1.018
				c0-0.566,0.454-1.022,1.021-1.022C43.481,27.817,43.937,28.273,43.937,28.84z"/>
			<path fill="#FFFFFF" d="M39.216,28.84c0,0.562-0.455,1.018-1.019,1.018c-0.562,0-1.022-0.456-1.022-1.018
				c0-0.566,0.46-1.022,1.022-1.022C38.761,27.817,39.216,28.273,39.216,28.84z"/>
			<path fill="#FFFFFF" d="M35.646,28.711c0,0.562-0.456,1.022-1.022,1.022c-0.563,0-1.019-0.461-1.019-1.022
				c0-0.563,0.456-1.022,1.019-1.022C35.191,27.688,35.646,28.147,35.646,28.711z"/>
			
				<line fill="none" stroke="#FFFFFF" stroke-width="0.4242" stroke-miterlimit="10" x1="34.624" y1="18.666" x2="34.624" y2="27.881"/>
			<polyline fill="none" stroke="#FFFFFF" stroke-width="0.4242" stroke-miterlimit="10" points="35.646,24.63 43.712,24.63 
				46.618,27.021 			"/>
			
				<line fill="none" stroke="#FFFFFF" stroke-width="0.4242" stroke-miterlimit="10" x1="39.026" y1="28.84" x2="42.086" y2="28.84"/>
			<polyline fill="none" stroke="#FFFFFF" stroke-width="0.4242" stroke-miterlimit="10" points="28.693,22.364 28.693,27.021 
				31.819,29.857 31.819,33.693 			"/>
			<polyline fill="none" stroke="#FFFFFF" stroke-width="0.4242" stroke-miterlimit="10" points="34.624,16.115 45.595,16.115 
				48.848,19.369 			"/>
			
				<line fill="none" stroke="#FFFFFF" stroke-width="0.4242" stroke-miterlimit="10" x1="25.44" y1="36.714" x2="43.937" y2="36.714"/>
			<polyline fill="none" stroke="#FFFFFF" stroke-width="0.4242" stroke-miterlimit="10" points="46.618,32.763 40.559,32.763 
				36.73,36.714 			"/>
			<polyline fill="none" stroke="#FFFFFF" stroke-width="0.4242" stroke-miterlimit="10" points="54.525,12.166 54.525,26.063 
				57.078,29.38 57.078,36.079 			"/>
			<polyline fill="none" stroke="#FFFFFF" stroke-width="0.4242" stroke-miterlimit="10" points="54.525,18.666 57.584,21.982 
				63.709,21.982 			"/>
			<polyline fill="none" stroke="#FFFFFF" stroke-width="0.4242" stroke-miterlimit="10" points="58.416,16.115 60.805,18.506 
				70.15,18.666 71.298,20.326 			"/>
			<polyline fill="none" stroke="#FFFFFF" stroke-width="0.4242" stroke-miterlimit="10" points="22.898,42.201 28.127,42.201 
				32.146,46.09 36.929,46.09 			"/>
			<polyline fill="none" stroke="#FFFFFF" stroke-width="0.4242" stroke-miterlimit="10" points="45.533,41.752 39.026,41.752 
				34.69,46.09 			"/>
			<polyline fill="none" stroke="#FFFFFF" stroke-width="0.4242" stroke-miterlimit="10" points="99.348,52.774 80.469,52.774 
				78.174,55.451 			"/>
			<path fill="none" stroke="#FFFFFF" stroke-width="0.4242" stroke-miterlimit="10" d="M76.514,56.091
				c0,0.563,0.459,1.019,1.022,1.019c0.562,0,1.022-0.455,1.022-1.019c0-0.565-0.461-1.022-1.022-1.022
				C76.973,55.068,76.514,55.525,76.514,56.091z"/>
			<path fill="none" stroke="#FFFFFF" stroke-width="0.4242" stroke-miterlimit="10" d="M76.514,61.797
				c0,0.562,0.459,1.022,1.022,1.022c0.562,0,1.022-0.461,1.022-1.022c0-0.563-0.461-1.019-1.022-1.019
				C76.973,60.778,76.514,61.233,76.514,61.797z"/>
			<circle fill="#FFFFFF" cx="92.97" cy="68.238" r="1.022"/>
			<circle fill="#FFFFFF" cx="96.095" cy="55.743" r="1.022"/>
			<circle fill="none" stroke="#FFFFFF" stroke-width="0.4242" stroke-miterlimit="10" cx="75.493" cy="54.112" r="1.02"/>
			<path fill="none" stroke="#FFFFFF" stroke-width="0.4242" stroke-miterlimit="10" d="M89.974,50.224
				c0,0.563,0.455,1.017,1.018,1.017c0.562,0,1.022-0.453,1.022-1.017c0-0.564-0.461-1.022-1.022-1.022
				C90.429,49.201,89.974,49.659,89.974,50.224z"/>
			<path fill="none" stroke="#FFFFFF" stroke-width="0.4242" stroke-miterlimit="10" d="M65.706,49.841
				c0,0.563,0.457,1.019,1.022,1.019c0.562,0,1.017-0.455,1.017-1.019c0-0.567-0.455-1.022-1.017-1.022
				C66.162,48.818,65.706,49.273,65.706,49.841z"/>
			<circle fill="none" stroke="#FFFFFF" stroke-width="0.4242" stroke-miterlimit="10" cx="52.723" cy="55.131" r="1.021"/>
			<path fill="none" stroke="#FFFFFF" stroke-width="0.4242" stroke-miterlimit="10" d="M59.301,56.153
				c0,0.562,0.455,1.022,1.017,1.022c0.569,0,1.022-0.46,1.022-1.022s-0.454-1.022-1.022-1.022
				C59.756,55.131,59.301,55.591,59.301,56.153z"/>
			<path fill="#FFFFFF" d="M66.694,71.015c0,0.562,0.454,1.017,1.021,1.017c0.563,0,1.018-0.455,1.018-1.017
				c0-0.564-0.455-1.022-1.018-1.022C67.148,69.992,66.694,70.45,66.694,71.015z"/>
			<path fill="#FFFFFF" d="M76.322,66.867c0,0.565,0.459,1.021,1.022,1.021c0.562,0,1.022-0.455,1.022-1.021
				c0-0.564-0.461-1.019-1.022-1.019C76.782,65.849,76.322,66.303,76.322,66.867z"/>
			<path fill="#FFFFFF" d="M77.345,75.859c0,0.562,0.455,1.021,1.022,1.021c0.563,0,1.017-0.458,1.017-1.021
				c0-0.562-0.454-1.019-1.017-1.019C77.8,74.841,77.345,75.298,77.345,75.859z"/>
			<circle fill="#FFFFFF" cx="84.678" cy="80.198" r="1.021"/>
			<path fill="#FFFFFF" d="M79.001,70.821c0,0.564,0.457,1.019,1.024,1.019c0.562,0,1.018-0.454,1.018-1.019
				c0-0.562-0.456-1.021-1.018-1.021C79.458,69.801,79.001,70.259,79.001,70.821z"/>
			<path fill="none" stroke="#FFFFFF" stroke-width="0.4242" stroke-miterlimit="10" d="M80.852,62.943
				c0,0.566,0.456,1.022,1.022,1.022c0.563,0,1.018-0.456,1.018-1.022c0-0.562-0.455-1.019-1.018-1.019
				C81.307,61.925,80.852,62.382,80.852,62.943z"/>
			<path fill="none" stroke="#FFFFFF" stroke-width="0.4242" stroke-miterlimit="10" d="M85.574,62.943
				c0,0.566,0.454,1.022,1.017,1.022c0.565,0,1.022-0.456,1.022-1.022c0-0.562-0.457-1.019-1.022-1.019
				C86.028,61.925,85.574,62.382,85.574,62.943z"/>
			<circle fill="none" stroke="#FFFFFF" stroke-width="0.4242" stroke-miterlimit="10" cx="90.163" cy="62.819" r="1.021"/>
			
				<line fill="none" stroke="#FFFFFF" stroke-width="0.4242" stroke-miterlimit="10" x1="90.165" y1="52.774" x2="90.165" y2="61.988"/>
			<polyline fill="none" stroke="#FFFFFF" stroke-width="0.4242" stroke-miterlimit="10" points="89.142,58.737 81.077,58.737 
				78.174,61.127 			"/>
			
				<line fill="none" stroke="#FFFFFF" stroke-width="0.4242" stroke-miterlimit="10" x1="85.763" y1="62.943" x2="82.702" y2="62.943"/>
			<polyline fill="none" stroke="#FFFFFF" stroke-width="0.4242" stroke-miterlimit="10" points="96.095,56.473 96.095,61.127 
				92.97,63.966 92.97,67.8 			"/>
			<polyline fill="none" stroke="#FFFFFF" stroke-width="0.4242" stroke-miterlimit="10" points="90.165,50.224 79.194,50.224 
				75.94,53.473 			"/>
			
				<line fill="none" stroke="#FFFFFF" stroke-width="0.4242" stroke-miterlimit="10" x1="99.348" y1="70.821" x2="80.852" y2="70.821"/>
			<polyline fill="none" stroke="#FFFFFF" stroke-width="0.4242" stroke-miterlimit="10" points="78.174,66.867 84.231,66.867 
				88.058,70.821 			"/>
			<polyline fill="none" stroke="#FFFFFF" stroke-width="0.4242" stroke-miterlimit="10" points="70.265,46.274 70.265,60.171 
				67.715,63.487 67.715,70.183 			"/>
			<polyline fill="none" stroke="#FFFFFF" stroke-width="0.4242" stroke-miterlimit="10" points="70.265,52.774 67.205,56.091 
				61.083,56.091 			"/>
			<polyline fill="none" stroke="#FFFFFF" stroke-width="0.4242" stroke-miterlimit="10" points="65.952,50.224 63.559,52.611 
				54.216,52.774 53.069,54.433 			"/>
			<polyline fill="none" stroke="#FFFFFF" stroke-width="0.4242" stroke-miterlimit="10" points="99.348,76.308 94.117,76.308 
				90.099,80.198 85.315,80.198 			"/>
			<polyline fill="none" stroke="#FFFFFF" stroke-width="0.4242" stroke-miterlimit="10" points="79.255,75.859 85.763,75.859 
				90.099,80.198 			"/>
			<polyline fill="none" stroke="#FFFFFF" stroke-width="0.4242" stroke-miterlimit="10" points="108.692,36.947 89.813,36.947 
				87.519,34.268 			"/>
			<circle fill="#FFFFFF" cx="86.881" cy="33.631" r="1.021"/>
			<circle fill="#FFFFFF" cx="86.881" cy="27.922" r="1.021"/>
			<path fill="none" stroke="#FFFFFF" stroke-width="0.4242" stroke-miterlimit="10" d="M101.295,21.48
				c0-0.562,0.455-1.021,1.018-1.021c0.567,0,1.022,0.459,1.022,1.021s-0.455,1.022-1.022,1.022
				C101.75,22.503,101.295,22.043,101.295,21.48z"/>
			<path fill="none" stroke="#FFFFFF" stroke-width="0.4242" stroke-miterlimit="10" d="M104.42,33.975
				c0-0.562,0.455-1.017,1.02-1.017c0.566,0,1.022,0.454,1.022,1.017c0,0.563-0.457,1.022-1.022,1.022
				C104.875,34.997,104.42,34.538,104.42,33.975z"/>
			<path fill="#FFFFFF" d="M83.82,35.606c0-0.563,0.457-1.019,1.019-1.019c0.564,0,1.021,0.455,1.021,1.019
				c0,0.566-0.457,1.021-1.021,1.021C84.277,36.628,83.82,36.173,83.82,35.606z"/>
			<circle fill="#FFFFFF" cx="100.338" cy="39.499" r="1.02"/>
			<path fill="none" stroke="#FFFFFF" stroke-width="0.4242" stroke-miterlimit="10" d="M75.051,39.881
				c0-0.566,0.457-1.021,1.02-1.021c0.563,0,1.022,0.454,1.022,1.021c0,0.563-0.459,1.02-1.022,1.02
				C75.507,40.9,75.051,40.444,75.051,39.881z"/>
			<circle fill="#FFFFFF" cx="62.492" cy="34.588" r="1.02"/>
			<path fill="#FFFFFF" d="M68.643,33.565c0-0.563,0.456-1.02,1.022-1.02c0.563,0,1.019,0.456,1.019,1.02
				c0,0.565-0.456,1.022-1.019,1.022C69.099,34.588,68.643,34.131,68.643,33.565z"/>
			<path fill="#FFFFFF" d="M76.037,18.704c0-0.562,0.459-1.017,1.022-1.017s1.019,0.454,1.019,1.017
				c0,0.567-0.456,1.023-1.019,1.023S76.037,19.271,76.037,18.704z"/>
			<circle fill="#FFFFFF" cx="86.69" cy="22.852" r="1.02"/>
			<circle fill="none" stroke="#FFFFFF" stroke-width="0.4242" stroke-miterlimit="10" cx="87.708" cy="13.859" r="1.02"/>
			<path fill="none" stroke="#FFFFFF" stroke-width="0.4242" stroke-miterlimit="10" d="M93.004,9.521
				c0-0.564,0.456-1.02,1.019-1.02s1.022,0.455,1.022,1.02c0,0.566-0.459,1.021-1.022,1.021S93.004,10.088,93.004,9.521z"/>
			<path fill="none" stroke="#FFFFFF" stroke-width="0.4242" stroke-miterlimit="10" d="M88.345,18.896
				c0-0.563,0.461-1.019,1.024-1.019s1.018,0.455,1.018,1.019c0,0.566-0.455,1.021-1.018,1.021S88.345,19.463,88.345,18.896z"/>
			<path fill="#FFFFFF" d="M90.196,26.775c0-0.563,0.459-1.022,1.022-1.022c0.563,0,1.02,0.459,1.02,1.022
				c0,0.562-0.457,1.019-1.02,1.019C90.655,27.794,90.196,27.337,90.196,26.775z"/>
			<path fill="none" stroke="#FFFFFF" stroke-width="0.4242" stroke-miterlimit="10" d="M94.917,26.775
				c0-0.563,0.455-1.022,1.022-1.022c0.562,0,1.019,0.459,1.019,1.022c0,0.562-0.457,1.019-1.019,1.019
				C95.372,27.794,94.917,27.337,94.917,26.775z"/>
			<path fill="none" stroke="#FFFFFF" stroke-width="0.4242" stroke-miterlimit="10" d="M98.488,26.903
				c0-0.565,0.458-1.022,1.021-1.022c0.562,0,1.022,0.457,1.022,1.022c0,0.563-0.461,1.019-1.022,1.019
				C98.946,27.922,98.488,27.467,98.488,26.903z"/>
			
				<line fill="none" stroke="#FFFFFF" stroke-width="0.4242" stroke-miterlimit="10" x1="99.509" y1="36.947" x2="99.509" y2="27.73"/>
			<polyline fill="none" stroke="#FFFFFF" stroke-width="0.4242" stroke-miterlimit="10" points="98.488,30.984 90.42,30.984 
				87.519,28.591 			"/>
			
				<line fill="none" stroke="#FFFFFF" stroke-width="0.4242" stroke-miterlimit="10" x1="95.107" y1="26.775" x2="92.045" y2="26.775"/>
			<polyline fill="none" stroke="#FFFFFF" stroke-width="0.4242" stroke-miterlimit="10" points="105.439,33.25 105.439,28.591 
				102.313,25.753 102.313,21.921 			"/>
			<polyline fill="none" stroke="#FFFFFF" stroke-width="0.4242" stroke-miterlimit="10" points="99.509,39.499 88.538,39.499 
				85.289,36.244 			"/>
			
				<line fill="none" stroke="#FFFFFF" stroke-width="0.4242" stroke-miterlimit="10" x1="108.692" y1="18.896" x2="90.196" y2="18.896"/>
			<polyline fill="none" stroke="#FFFFFF" stroke-width="0.4242" stroke-miterlimit="10" points="87.519,22.852 93.578,22.852 
				97.405,18.896 			"/>
			<polyline fill="none" stroke="#FFFFFF" stroke-width="0.4242" stroke-miterlimit="10" points="79.61,43.444 79.61,29.547 
				77.059,26.231 77.059,19.536 			"/>
			<polyline fill="none" stroke="#FFFFFF" stroke-width="0.4242" stroke-miterlimit="10" points="79.61,36.947 76.547,33.631 
				70.427,33.631 			"/>
			<polyline fill="none" stroke="#FFFFFF" stroke-width="0.4242" stroke-miterlimit="10" points="75.722,39.499 73.328,37.106 
				63.985,36.947 62.839,35.289 			"/>
			<polyline fill="none" stroke="#FFFFFF" stroke-width="0.4242" stroke-miterlimit="10" points="108.692,13.413 103.463,13.413 
				99.445,9.521 94.662,9.521 			"/>
			<polyline fill="none" stroke="#FFFFFF" stroke-width="0.4242" stroke-miterlimit="10" points="88.604,13.859 95.107,13.859 
				99.445,9.521 			"/>
			<polyline fill="none" stroke="#FFFFFF" stroke-width="0.4242" stroke-miterlimit="10" points="24.812,78.267 43.692,78.267 
				45.986,75.586 			"/>
			<path fill="#FFFFFF" d="M47.644,74.948c0-0.565-0.456-1.021-1.019-1.021c-0.567,0-1.022,0.455-1.022,1.021
				c0,0.564,0.456,1.021,1.022,1.021C47.188,75.969,47.644,75.513,47.644,74.948z"/>
			<path fill="#FFFFFF" d="M47.644,69.24c0-0.562-0.456-1.022-1.019-1.022c-0.567,0-1.022,0.461-1.022,1.022
				c0,0.563,0.456,1.021,1.022,1.021C47.188,70.261,47.644,69.804,47.644,69.24z"/>
			<path fill="#FFFFFF" d="M32.21,62.799c0-0.562-0.457-1.022-1.018-1.022c-0.567,0-1.024,0.461-1.024,1.022
				c0,0.563,0.457,1.019,1.024,1.019C31.753,63.817,32.21,63.362,32.21,62.799z"/>
			<path fill="none" stroke="#FFFFFF" stroke-width="0.4242" stroke-miterlimit="10" d="M29.085,75.294
				c0-0.563-0.455-1.022-1.018-1.022c-0.567,0-1.022,0.459-1.022,1.022c0,0.562,0.456,1.021,1.022,1.021
				C28.63,76.315,29.085,75.855,29.085,75.294z"/>
			<path fill="#FFFFFF" d="M49.685,76.924c0-0.562-0.457-1.018-1.019-1.018c-0.565,0-1.022,0.455-1.022,1.018
				c0,0.565,0.457,1.021,1.022,1.021C49.228,77.945,49.685,77.489,49.685,76.924z"/>
			<path fill="none" stroke="#FFFFFF" stroke-width="0.4242" stroke-miterlimit="10" d="M34.188,80.813
				c0-0.562-0.454-1.019-1.022-1.019c-0.562,0-1.017,0.457-1.017,1.019c0,0.567,0.456,1.022,1.017,1.022
				C33.733,81.836,34.188,81.381,34.188,80.813z"/>
			<circle fill="#FFFFFF" cx="57.432" cy="81.198" r="1.02"/>
			<path fill="#FFFFFF" d="M72.034,75.906c0-0.565-0.456-1.022-1.019-1.022s-1.022,0.457-1.022,1.022
				c0,0.562,0.459,1.018,1.022,1.018S72.034,76.468,72.034,75.906z"/>
			<circle fill="#FFFFFF" cx="63.841" cy="74.884" r="1.02"/>
			<path fill="none" stroke="#FFFFFF" stroke-width="0.4242" stroke-miterlimit="10" d="M57.467,60.022
				c0-0.562-0.459-1.018-1.021-1.018c-0.563,0-1.023,0.455-1.023,1.018c0,0.567,0.46,1.022,1.023,1.022
				C57.008,61.045,57.467,60.59,57.467,60.022z"/>
			<path fill="none" stroke="#FFFFFF" stroke-width="0.4242" stroke-miterlimit="10" d="M47.835,64.17
				c0-0.562-0.455-1.021-1.018-1.021c-0.567,0-1.022,0.458-1.022,1.021c0,0.563,0.455,1.019,1.022,1.019
				C47.38,65.188,47.835,64.733,47.835,64.17z"/>
			<path fill="none" stroke="#FFFFFF" stroke-width="0.4242" stroke-miterlimit="10" d="M40.028,55.178
				c0-0.563-0.457-1.022-1.018-1.022c-0.567,0-1.022,0.459-1.022,1.022c0,0.562,0.455,1.021,1.022,1.021
				C39.571,56.199,40.028,55.739,40.028,55.178z"/>
			<path fill="none" stroke="#FFFFFF" stroke-width="0.4242" stroke-miterlimit="10" d="M37.955,50.839
				c0-0.562-0.456-1.018-1.019-1.018s-1.022,0.455-1.022,1.018c0,0.567,0.459,1.021,1.022,1.021S37.955,51.406,37.955,50.839z"/>
			<path fill="none" stroke="#FFFFFF" stroke-width="0.4242" stroke-miterlimit="10" d="M45.16,60.214
				c0-0.562-0.461-1.019-1.024-1.019s-1.021,0.456-1.021,1.019c0,0.567,0.458,1.022,1.021,1.022S45.16,60.781,45.16,60.214z"/>
			<circle fill="#FFFFFF" cx="42.288" cy="68.093" r="1.021"/>
			<path fill="#FFFFFF" d="M38.588,68.093c0-0.564-0.455-1.021-1.021-1.021c-0.563,0-1.018,0.457-1.018,1.021
				c0,0.562,0.455,1.019,1.018,1.019C38.133,69.111,38.588,68.655,38.588,68.093z"/>
			<path fill="#FFFFFF" d="M35.016,68.218c0-0.562-0.457-1.019-1.02-1.019c-0.562,0-1.022,0.456-1.022,1.019
				c0,0.567,0.46,1.022,1.022,1.022C34.559,69.24,35.016,68.785,35.016,68.218z"/>
			
				<line fill="none" stroke="#FFFFFF" stroke-width="0.4242" stroke-miterlimit="10" x1="33.996" y1="78.267" x2="33.996" y2="69.049"/>
			<polyline fill="none" stroke="#FFFFFF" stroke-width="0.4242" stroke-miterlimit="10" points="35.016,72.304 43.085,72.304 
				45.986,69.909 			"/>
			
				<line fill="none" stroke="#FFFFFF" stroke-width="0.4242" stroke-miterlimit="10" x1="38.398" y1="68.093" x2="41.457" y2="68.093"/>
			<polyline fill="none" stroke="#FFFFFF" stroke-width="0.4242" stroke-miterlimit="10" points="28.067,74.563 28.067,69.909 
				31.192,67.071 31.192,63.236 			"/>
			<polyline fill="none" stroke="#FFFFFF" stroke-width="0.4242" stroke-miterlimit="10" points="33.996,80.813 44.967,80.813 
				48.218,77.563 			"/>
			
				<line fill="none" stroke="#FFFFFF" stroke-width="0.4242" stroke-miterlimit="10" x1="24.812" y1="60.214" x2="43.309" y2="60.214"/>
			<polyline fill="none" stroke="#FFFFFF" stroke-width="0.4242" stroke-miterlimit="10" points="45.986,64.17 39.927,64.17 
				36.1,60.214 			"/>
			<polyline fill="none" stroke="#FFFFFF" stroke-width="0.4242" stroke-miterlimit="10" points="53.894,84.763 53.894,70.864 
				56.446,67.55 56.446,60.854 			"/>
			<polyline fill="none" stroke="#FFFFFF" stroke-width="0.4242" stroke-miterlimit="10" points="53.894,78.267 56.957,74.948 
				63.079,74.948 			"/>
			<polyline fill="none" stroke="#FFFFFF" stroke-width="0.4242" stroke-miterlimit="10" points="57.784,80.813 60.178,78.424 
				69.52,78.267 70.667,76.608 			"/>
			<polyline fill="none" stroke="#FFFFFF" stroke-width="0.4242" stroke-miterlimit="10" points="15.479,54.731 20.709,54.731 
				24.728,50.839 29.512,50.839 			"/>
			<polyline fill="none" stroke="#FFFFFF" stroke-width="0.4242" stroke-miterlimit="10" points="38.117,55.178 31.608,55.178 
				27.273,50.839 			"/>
		</g>
	</g>
	<g>
		<g>
			<path fill="#FFFFFF" d="M107.351,34.976h19.343c3.091,0,5.629,1.564,7.617,4.69c0.7,1.391,1.053,2.696,1.053,3.929
				c0,2.106-0.424,3.738-1.266,4.898c2.355,2.074,3.531,4.369,3.531,6.88c0,4.372-1.985,7.395-5.955,9.063
				c-1.301,0.457-2.758,0.686-4.377,0.686h-19.946l-0.16-0.157V35.133L107.351,34.976z M112.121,40.113v6.931h14.493
				c2.159,0,3.355-1.256,3.586-3.767c0-1.302-0.782-2.294-2.347-2.979l-1.239-0.185H112.121z M112.121,52.291v7.534h16.547
				c2.09,0,3.242-1.372,3.453-4.111c0-1.403-0.754-2.485-2.268-3.239l-1.186-0.184H112.121z"/>
			<path fill="#FFFFFF" d="M139.362,34.897h1.767c1.301,0,2.212,0.544,2.741,1.633l7.035,8.67l8.381-10.067l1.396-0.235h1.765
				c1.403,0,2.371,0.475,2.898,1.423l-11.489,14.807v7.988c0,2.898-1.327,4.83-3.98,5.796c-0.611,0.142-1.282,0.211-2,0.211
				l-0.078-0.079V51.127L136.466,36.53C136.466,35.671,137.43,35.123,139.362,34.897z"/>
			<path fill="#FFFFFF" d="M195.661,34.897c0.09,0,0.132,0.07,0.132,0.21c0,2.495-1.247,4.252-3.743,5.272
				c-0.579,0.193-1.21,0.29-1.894,0.29h-5.906v17.556h-5.78l0.008-17.556h-6.162c-2.585,0-4.368-1.26-5.352-3.771
				c-0.194-0.579-0.291-1.229-0.291-1.949l0.078-0.053H195.661z"/>
			<path fill="#FFFFFF" d="M208.424,34.976h16.442L225,35.133c0,2.777-1.343,4.7-4.034,5.771c-0.599,0.193-1.353,0.29-2.268,0.29
				h-9.143c-3.178,0-5.755,1.504-7.722,4.507c-0.405,0.772-0.607,1.246-0.607,1.421h19.137l0.156,0.161
				c0,2.773-1.353,4.699-4.06,5.771c-0.594,0.193-1.343,0.291-2.241,0.291h-12.91c0.808,2,2.187,3.531,4.136,4.585
				c1.301,0.647,2.521,0.974,3.664,0.974h9.59c2.989,0,4.989,1.345,6.012,4.034c0.192,0.631,0.29,1.307,0.29,2.027l-0.134,0.157
				h-15.071c-6.029,0-10.629-2.828-13.812-8.485c-1.001-2.23-1.502-4.428-1.502-6.587c0-3.373,1.074-6.528,3.218-9.463
				c2.562-2.754,4.916-4.383,7.061-4.874C206.062,35.237,207.28,34.994,208.424,34.976z"/>
		</g>
		<rect x="178.47" y="60.242" fill="#FFFFFF" width="5.786" height="4.872"/>
	</g>
</g>
</svg>
