<?xml version="1.0" encoding="utf-8"?>
<!-- Generator: Adobe Illustrator 16.0.5, SVG Export Plug-In . SVG Version: 6.00 Build 0)  -->
<!DOCTYPE svg PUBLIC "-//W3C//DTD SVG 1.1//EN" "http://www.w3.org/Graphics/SVG/1.1/DTD/svg11.dtd">
<svg version="1.1" id="Layer_1" xmlns="http://www.w3.org/2000/svg" xmlns:xlink="http://www.w3.org/1999/xlink" x="0px" y="0px"
	 width="250px" height="100px" viewBox="0 0 250 100" enable-background="new 0 0 250 100" xml:space="preserve">
<g>
	<g>
		<circle fill="#1E66AF" cx="63.539" cy="50" r="38.539"/>
		<g>
			<path fill="#FFFFFF" d="M32.212,49.982c0-2.183,0.478-4.304,1.436-6.355c1.743-3.493,4.447-5.928,8.115-7.304
				c1.457-0.621,3.644-0.929,6.557-0.929h13.238v5.667H47.612c-4.197,0-7.124,1.805-8.782,5.42c-0.524,1.175-0.79,2.342-0.79,3.501
				c0,1.172,0.266,2.339,0.79,3.5c1.658,3.616,4.585,5.425,8.782,5.425h5.853v5.646h-5.144c-2.914,0-5.1-0.312-6.557-0.931
				c-3.668-1.364-6.373-3.793-8.115-7.286C32.69,54.287,32.212,52.17,32.212,49.982z M46.298,47.169h15.261v17.383H55.81V52.776
				h-9.512V47.169z"/>
		</g>
		<g>
			<path fill="#FFFFFF" d="M71.137,42.087v-6.622h14.718h6.733v21.879v7.281H72.456h-6.698v-23.21l6.039,0.012v16.577h14.717V42.087
				H71.137z"/>
		</g>
		<g id="_x31_">
			<g opacity="0.3">
				<defs>
					<circle id="SVGID_1_" opacity="0.3" cx="63.539" cy="50" r="38.539"/>
				</defs>
				<clipPath id="SVGID_2_">
					<use xlink:href="#SVGID_1_"  overflow="visible"/>
				</clipPath>
				<g clip-path="url(#SVGID_2_)">
					<polyline fill="none" stroke="#FFFFFF" stroke-width="0.4242" stroke-miterlimit="10" points="25.44,18.667 44.32,18.667 
						46.617,21.342 					"/>
					<circle fill="#FFFFFF" cx="47.255" cy="21.983" r="1.021"/>
					<path fill="#FFFFFF" d="M48.276,27.688c0,0.566-0.46,1.022-1.023,1.022c-0.562,0-1.019-0.456-1.019-1.022
						c0-0.562,0.457-1.018,1.019-1.018C47.816,26.67,48.276,27.126,48.276,27.688z"/>
					<circle fill="#FFFFFF" cx="31.821" cy="34.131" r="1.02"/>
					<path fill="none" stroke="#FFFFFF" stroke-width="0.4242" stroke-miterlimit="10" d="M29.716,21.635
						c0,0.567-0.459,1.021-1.023,1.021c-0.562,0-1.018-0.455-1.018-1.021c0-0.562,0.456-1.019,1.018-1.019
						C29.257,20.617,29.716,21.073,29.716,21.635z"/>
					<path fill="#FFFFFF" d="M50.316,20.004c0,0.564-0.461,1.023-1.022,1.023c-0.563,0-1.018-0.459-1.018-1.023
						c0-0.562,0.455-1.018,1.018-1.018C49.855,18.986,50.316,19.442,50.316,20.004z"/>
					<circle fill="none" stroke="#FFFFFF" stroke-width="0.4242" stroke-miterlimit="10" cx="33.795" cy="16.115" r="1.021"/>
					<path fill="#FFFFFF" d="M59.085,15.733c0,0.562-0.456,1.018-1.023,1.018c-0.562,0-1.018-0.456-1.018-1.018
						c0-0.563,0.456-1.023,1.018-1.023C58.629,14.71,59.085,15.17,59.085,15.733z"/>
					<path fill="#FFFFFF" d="M72.665,21.027c0,0.563-0.455,1.019-1.022,1.019c-0.562,0-1.018-0.455-1.018-1.019
						c0-0.566,0.455-1.023,1.018-1.023C72.21,20.004,72.665,20.46,72.665,21.027z"/>
					<circle fill="#FFFFFF" cx="64.469" cy="22.045" r="1.02"/>
					<path fill="none" stroke="#FFFFFF" stroke-width="0.4242" stroke-miterlimit="10" d="M58.095,36.906
						c0,0.563-0.455,1.022-1.017,1.022c-0.568,0-1.022-0.458-1.022-1.022c0-0.563,0.455-1.019,1.022-1.019
						C57.64,35.887,58.095,36.343,58.095,36.906z"/>
					<path fill="#FFFFFF" d="M48.466,32.762c0,0.563-0.459,1.018-1.022,1.018c-0.562,0-1.019-0.455-1.019-1.018
						c0-0.566,0.457-1.022,1.019-1.022C48.007,31.74,48.466,32.196,48.466,32.762z"/>
					<circle fill="none" stroke="#FFFFFF" stroke-width="0.4242" stroke-miterlimit="10" cx="46.424" cy="41.752" r="1.02"/>
					<path fill="none" stroke="#FFFFFF" stroke-width="0.4242" stroke-miterlimit="10" d="M38.586,46.09
						c0,0.562-0.456,1.022-1.022,1.022c-0.563,0-1.018-0.459-1.018-1.022c0-0.563,0.455-1.022,1.018-1.022
						C38.131,45.068,38.586,45.527,38.586,46.09z"/>
					<path fill="none" stroke="#FFFFFF" stroke-width="0.4242" stroke-miterlimit="10" d="M45.787,36.714
						c0,0.563-0.456,1.022-1.018,1.022c-0.568,0-1.023-0.459-1.023-1.022c0-0.562,0.456-1.02,1.023-1.02
						C45.331,35.694,45.787,36.152,45.787,36.714z"/>
					<path fill="#FFFFFF" d="M43.937,28.839c0,0.562-0.456,1.018-1.019,1.018c-0.566,0-1.021-0.456-1.021-1.018
						c0-0.565,0.455-1.021,1.021-1.021C43.481,27.818,43.937,28.274,43.937,28.839z"/>
					<path fill="#FFFFFF" d="M39.216,28.839c0,0.562-0.455,1.018-1.018,1.018c-0.562,0-1.022-0.456-1.022-1.018
						c0-0.565,0.461-1.021,1.022-1.021C38.761,27.818,39.216,28.274,39.216,28.839z"/>
					<path fill="#FFFFFF" d="M35.646,28.711c0,0.562-0.456,1.022-1.022,1.022c-0.563,0-1.019-0.461-1.019-1.022
						c0-0.563,0.456-1.022,1.019-1.022C35.19,27.688,35.646,28.147,35.646,28.711z"/>
					
						<line fill="none" stroke="#FFFFFF" stroke-width="0.4242" stroke-miterlimit="10" x1="34.624" y1="18.667" x2="34.624" y2="27.88"/>
					<polyline fill="none" stroke="#FFFFFF" stroke-width="0.4242" stroke-miterlimit="10" points="35.646,24.629 43.711,24.629 
						46.617,27.02 					"/>
					
						<line fill="none" stroke="#FFFFFF" stroke-width="0.4242" stroke-miterlimit="10" x1="39.025" y1="28.839" x2="42.086" y2="28.839"/>
					<polyline fill="none" stroke="#FFFFFF" stroke-width="0.4242" stroke-miterlimit="10" points="28.693,22.365 28.693,27.02 
						31.819,29.857 31.819,33.693 					"/>
					<polyline fill="none" stroke="#FFFFFF" stroke-width="0.4242" stroke-miterlimit="10" points="34.624,16.115 45.595,16.115 
						48.848,19.369 					"/>
					
						<line fill="none" stroke="#FFFFFF" stroke-width="0.4242" stroke-miterlimit="10" x1="25.44" y1="36.714" x2="43.937" y2="36.714"/>
					<polyline fill="none" stroke="#FFFFFF" stroke-width="0.4242" stroke-miterlimit="10" points="46.617,32.762 40.558,32.762 
						36.731,36.714 					"/>
					<polyline fill="none" stroke="#FFFFFF" stroke-width="0.4242" stroke-miterlimit="10" points="54.525,12.166 54.525,26.063 
						57.078,29.38 57.078,36.079 					"/>
					<polyline fill="none" stroke="#FFFFFF" stroke-width="0.4242" stroke-miterlimit="10" points="54.525,18.667 57.584,21.983 
						63.709,21.983 					"/>
					<polyline fill="none" stroke="#FFFFFF" stroke-width="0.4242" stroke-miterlimit="10" points="58.415,16.115 60.805,18.506 
						70.151,18.667 71.298,20.325 					"/>
					<polyline fill="none" stroke="#FFFFFF" stroke-width="0.4242" stroke-miterlimit="10" points="22.899,42.201 28.127,42.201 
						32.145,46.09 36.928,46.09 					"/>
					<polyline fill="none" stroke="#FFFFFF" stroke-width="0.4242" stroke-miterlimit="10" points="45.533,41.752 39.025,41.752 
						34.69,46.09 					"/>
					<polyline fill="none" stroke="#FFFFFF" stroke-width="0.4242" stroke-miterlimit="10" points="99.349,52.774 80.469,52.774 
						78.175,55.451 					"/>
					<path fill="none" stroke="#FFFFFF" stroke-width="0.4242" stroke-miterlimit="10" d="M76.513,56.091
						c0,0.563,0.46,1.019,1.022,1.019s1.022-0.455,1.022-1.019c0-0.565-0.46-1.022-1.022-1.022S76.513,55.525,76.513,56.091z"/>
					<path fill="none" stroke="#FFFFFF" stroke-width="0.4242" stroke-miterlimit="10" d="M76.513,61.797
						c0,0.562,0.46,1.022,1.022,1.022s1.022-0.461,1.022-1.022c0-0.563-0.46-1.019-1.022-1.019S76.513,61.233,76.513,61.797z"/>
					<circle fill="#FFFFFF" cx="92.97" cy="68.238" r="1.022"/>
					<circle fill="#FFFFFF" cx="96.095" cy="55.743" r="1.022"/>
					<circle fill="none" stroke="#FFFFFF" stroke-width="0.4242" stroke-miterlimit="10" cx="75.493" cy="54.112" r="1.02"/>
					<path fill="none" stroke="#FFFFFF" stroke-width="0.4242" stroke-miterlimit="10" d="M89.974,50.224
						c0,0.563,0.456,1.017,1.018,1.017c0.562,0,1.023-0.454,1.023-1.017c0-0.564-0.461-1.023-1.023-1.023
						C90.429,49.201,89.974,49.659,89.974,50.224z"/>
					<path fill="none" stroke="#FFFFFF" stroke-width="0.4242" stroke-miterlimit="10" d="M65.705,49.841
						c0,0.563,0.458,1.019,1.022,1.019c0.562,0,1.018-0.455,1.018-1.019c0-0.567-0.456-1.022-1.018-1.022
						C66.163,48.819,65.705,49.273,65.705,49.841z"/>
					<circle fill="none" stroke="#FFFFFF" stroke-width="0.4242" stroke-miterlimit="10" cx="52.722" cy="55.131" r="1.02"/>
					<path fill="none" stroke="#FFFFFF" stroke-width="0.4242" stroke-miterlimit="10" d="M59.3,56.153
						c0,0.562,0.455,1.022,1.018,1.022c0.568,0,1.022-0.46,1.022-1.022c0-0.562-0.455-1.022-1.022-1.022
						C59.755,55.131,59.3,55.592,59.3,56.153z"/>
					<path fill="#FFFFFF" d="M66.694,71.015c0,0.562,0.455,1.017,1.021,1.017c0.563,0,1.019-0.455,1.019-1.017
						c0-0.564-0.456-1.022-1.019-1.022C67.148,69.992,66.694,70.45,66.694,71.015z"/>
					<circle fill="#FFFFFF" cx="77.345" cy="66.867" r="1.022"/>
					<path fill="#FFFFFF" d="M77.344,75.859c0,0.563,0.456,1.021,1.022,1.021c0.563,0,1.018-0.458,1.018-1.021
						c0-0.562-0.455-1.019-1.018-1.019C77.8,74.841,77.344,75.298,77.344,75.859z"/>
					<circle fill="#FFFFFF" cx="84.677" cy="80.198" r="1.02"/>
					<path fill="#FFFFFF" d="M79.001,70.821c0,0.564,0.457,1.019,1.024,1.019c0.562,0,1.019-0.454,1.019-1.019
						c0-0.562-0.456-1.021-1.019-1.021C79.458,69.801,79.001,70.259,79.001,70.821z"/>
					<path fill="none" stroke="#FFFFFF" stroke-width="0.4242" stroke-miterlimit="10" d="M80.852,62.943
						c0,0.566,0.455,1.022,1.022,1.022c0.562,0,1.018-0.456,1.018-1.022c0-0.562-0.456-1.019-1.018-1.019
						C81.307,61.925,80.852,62.382,80.852,62.943z"/>
					<path fill="none" stroke="#FFFFFF" stroke-width="0.4242" stroke-miterlimit="10" d="M85.574,62.943
						c0,0.566,0.455,1.022,1.017,1.022c0.566,0,1.022-0.456,1.022-1.022c0-0.562-0.456-1.019-1.022-1.019
						C86.028,61.925,85.574,62.382,85.574,62.943z"/>
					<circle fill="none" stroke="#FFFFFF" stroke-width="0.4242" stroke-miterlimit="10" cx="90.163" cy="62.819" r="1.021"/>
					
						<line fill="none" stroke="#FFFFFF" stroke-width="0.4242" stroke-miterlimit="10" x1="90.165" y1="52.774" x2="90.165" y2="61.988"/>
					<polyline fill="none" stroke="#FFFFFF" stroke-width="0.4242" stroke-miterlimit="10" points="89.142,58.738 81.077,58.738 
						78.175,61.127 					"/>
					
						<line fill="none" stroke="#FFFFFF" stroke-width="0.4242" stroke-miterlimit="10" x1="85.763" y1="62.943" x2="82.702" y2="62.943"/>
					<polyline fill="none" stroke="#FFFFFF" stroke-width="0.4242" stroke-miterlimit="10" points="96.095,56.473 96.095,61.127 
						92.97,63.966 92.97,67.801 					"/>
					<polyline fill="none" stroke="#FFFFFF" stroke-width="0.4242" stroke-miterlimit="10" points="90.165,50.224 79.194,50.224 
						75.94,53.473 					"/>
					
						<line fill="none" stroke="#FFFFFF" stroke-width="0.4242" stroke-miterlimit="10" x1="99.349" y1="70.821" x2="80.852" y2="70.821"/>
					<polyline fill="none" stroke="#FFFFFF" stroke-width="0.4242" stroke-miterlimit="10" points="78.175,66.867 84.231,66.867 
						88.058,70.821 					"/>
					<polyline fill="none" stroke="#FFFFFF" stroke-width="0.4242" stroke-miterlimit="10" points="70.265,46.275 70.265,60.171 
						67.715,63.487 67.715,70.184 					"/>
					<polyline fill="none" stroke="#FFFFFF" stroke-width="0.4242" stroke-miterlimit="10" points="70.265,52.774 67.204,56.091 
						61.083,56.091 					"/>
					<polyline fill="none" stroke="#FFFFFF" stroke-width="0.4242" stroke-miterlimit="10" points="65.952,50.224 63.558,52.611 
						54.216,52.774 53.069,54.433 					"/>
					<polyline fill="none" stroke="#FFFFFF" stroke-width="0.4242" stroke-miterlimit="10" points="99.349,76.308 94.116,76.308 
						90.098,80.198 85.315,80.198 					"/>
					<polyline fill="none" stroke="#FFFFFF" stroke-width="0.4242" stroke-miterlimit="10" points="79.255,75.859 85.763,75.859 
						90.098,80.198 					"/>
					<polyline fill="none" stroke="#FFFFFF" stroke-width="0.4242" stroke-miterlimit="10" points="108.692,36.948 89.813,36.948 
						87.519,34.268 					"/>
					<circle fill="#FFFFFF" cx="86.881" cy="33.631" r="1.021"/>
					<path fill="#FFFFFF" d="M85.86,27.921c0-0.562,0.457-1.019,1.019-1.019c0.566,0,1.023,0.457,1.023,1.019
						c0,0.563-0.457,1.022-1.023,1.022C86.317,28.944,85.86,28.485,85.86,27.921z"/>
					<path fill="none" stroke="#FFFFFF" stroke-width="0.4242" stroke-miterlimit="10" d="M101.295,21.48
						c0-0.562,0.456-1.021,1.019-1.021c0.566,0,1.022,0.458,1.022,1.021c0,0.563-0.456,1.023-1.022,1.023
						C101.75,22.503,101.295,22.043,101.295,21.48z"/>
					<path fill="none" stroke="#FFFFFF" stroke-width="0.4242" stroke-miterlimit="10" d="M104.419,33.975
						c0-0.563,0.456-1.018,1.02-1.018c0.566,0,1.022,0.455,1.022,1.018c0,0.562-0.457,1.022-1.022,1.022
						C104.875,34.997,104.419,34.537,104.419,33.975z"/>
					<path fill="#FFFFFF" d="M83.821,35.606c0-0.563,0.456-1.019,1.018-1.019c0.564,0,1.021,0.456,1.021,1.019
						c0,0.566-0.457,1.022-1.021,1.022C84.277,36.628,83.821,36.172,83.821,35.606z"/>
					<path fill="#FFFFFF" d="M99.317,39.499c0-0.566,0.456-1.022,1.022-1.022c0.562,0,1.019,0.456,1.019,1.022
						c0,0.562-0.457,1.019-1.019,1.019C99.772,40.518,99.317,40.062,99.317,39.499z"/>
					<circle fill="none" stroke="#FFFFFF" stroke-width="0.4242" stroke-miterlimit="10" cx="76.072" cy="39.881" r="1.021"/>
					<circle fill="#FFFFFF" cx="62.491" cy="34.587" r="1.02"/>
					<path fill="#FFFFFF" d="M68.644,33.565c0-0.562,0.455-1.019,1.022-1.019c0.563,0,1.018,0.456,1.018,1.019
						c0,0.565-0.455,1.022-1.018,1.022C69.099,34.587,68.644,34.13,68.644,33.565z"/>
					<path fill="#FFFFFF" d="M76.037,18.704c0-0.562,0.458-1.018,1.022-1.018s1.019,0.455,1.019,1.018
						c0,0.567-0.455,1.023-1.019,1.023S76.037,19.271,76.037,18.704z"/>
					<path fill="#FFFFFF" d="M85.67,22.852c0-0.562,0.456-1.021,1.018-1.021c0.566,0,1.022,0.46,1.022,1.021
						c0,0.563-0.456,1.022-1.022,1.022C86.125,23.874,85.67,23.415,85.67,22.852z"/>
					<circle fill="none" stroke="#FFFFFF" stroke-width="0.4242" stroke-miterlimit="10" cx="87.708" cy="13.858" r="1.02"/>
					<path fill="none" stroke="#FFFFFF" stroke-width="0.4242" stroke-miterlimit="10" d="M93.004,9.521
						c0-0.563,0.456-1.019,1.019-1.019s1.022,0.456,1.022,1.019c0,0.566-0.459,1.022-1.022,1.022S93.004,10.087,93.004,9.521z"/>
					<circle fill="none" stroke="#FFFFFF" stroke-width="0.4242" stroke-miterlimit="10" cx="89.366" cy="18.897" r="1.021"/>
					<circle fill="#FFFFFF" cx="91.217" cy="26.774" r="1.021"/>
					<path fill="none" stroke="#FFFFFF" stroke-width="0.4242" stroke-miterlimit="10" d="M94.917,26.774
						c0-0.562,0.455-1.021,1.022-1.021c0.562,0,1.018,0.459,1.018,1.021c0,0.562-0.457,1.019-1.018,1.019
						C95.372,27.793,94.917,27.337,94.917,26.774z"/>
					<circle fill="none" stroke="#FFFFFF" stroke-width="0.4242" stroke-miterlimit="10" cx="99.509" cy="26.903" r="1.021"/>
					
						<line fill="none" stroke="#FFFFFF" stroke-width="0.4242" stroke-miterlimit="10" x1="99.508" y1="36.948" x2="99.508" y2="27.731"/>
					<polyline fill="none" stroke="#FFFFFF" stroke-width="0.4242" stroke-miterlimit="10" points="98.488,30.985 90.42,30.985 
						87.519,28.591 					"/>
					
						<line fill="none" stroke="#FFFFFF" stroke-width="0.4242" stroke-miterlimit="10" x1="95.106" y1="26.774" x2="92.045" y2="26.774"/>
					<polyline fill="none" stroke="#FFFFFF" stroke-width="0.4242" stroke-miterlimit="10" points="105.439,33.25 105.439,28.591 
						102.313,25.753 102.313,21.921 					"/>
					<polyline fill="none" stroke="#FFFFFF" stroke-width="0.4242" stroke-miterlimit="10" points="99.508,39.499 88.538,39.499 
						85.288,36.245 					"/>
					
						<line fill="none" stroke="#FFFFFF" stroke-width="0.4242" stroke-miterlimit="10" x1="108.692" y1="18.897" x2="90.195" y2="18.897"/>
					<polyline fill="none" stroke="#FFFFFF" stroke-width="0.4242" stroke-miterlimit="10" points="87.519,22.852 93.578,22.852 
						97.405,18.897 					"/>
					<polyline fill="none" stroke="#FFFFFF" stroke-width="0.4242" stroke-miterlimit="10" points="79.611,43.444 79.611,29.547 
						77.059,26.231 77.059,19.536 					"/>
					<polyline fill="none" stroke="#FFFFFF" stroke-width="0.4242" stroke-miterlimit="10" points="79.611,36.948 76.548,33.631 
						70.427,33.631 					"/>
					<polyline fill="none" stroke="#FFFFFF" stroke-width="0.4242" stroke-miterlimit="10" points="75.721,39.499 73.328,37.106 
						63.986,36.948 62.839,35.29 					"/>
					<polyline fill="none" stroke="#FFFFFF" stroke-width="0.4242" stroke-miterlimit="10" points="108.692,13.413 103.464,13.413 
						99.446,9.522 94.663,9.522 					"/>
					<polyline fill="none" stroke="#FFFFFF" stroke-width="0.4242" stroke-miterlimit="10" points="88.603,13.858 95.106,13.858 
						99.446,9.522 					"/>
					<polyline fill="none" stroke="#FFFFFF" stroke-width="0.4242" stroke-miterlimit="10" points="24.812,78.267 43.691,78.267 
						45.985,75.586 					"/>
					<path fill="#FFFFFF" d="M47.644,74.949c0-0.566-0.456-1.021-1.018-1.021c-0.567,0-1.022,0.455-1.022,1.021
						c0,0.564,0.455,1.02,1.022,1.02C47.188,75.969,47.644,75.514,47.644,74.949z"/>
					<path fill="#FFFFFF" d="M47.644,69.24c0-0.562-0.456-1.022-1.018-1.022c-0.567,0-1.022,0.461-1.022,1.022
						c0,0.563,0.455,1.021,1.022,1.021C47.188,70.262,47.644,69.804,47.644,69.24z"/>
					<path fill="#FFFFFF" d="M32.21,62.799c0-0.562-0.456-1.022-1.019-1.022c-0.566,0-1.023,0.461-1.023,1.022
						c0,0.563,0.457,1.019,1.023,1.019C31.754,63.817,32.21,63.362,32.21,62.799z"/>
					<path fill="none" stroke="#FFFFFF" stroke-width="0.4242" stroke-miterlimit="10" d="M29.085,75.294
						c0-0.563-0.455-1.022-1.019-1.022c-0.567,0-1.022,0.459-1.022,1.022c0,0.562,0.456,1.022,1.022,1.022
						C28.63,76.316,29.085,75.855,29.085,75.294z"/>
					<path fill="#FFFFFF" d="M49.685,76.924c0-0.562-0.457-1.018-1.019-1.018c-0.566,0-1.022,0.455-1.022,1.018
						c0,0.565,0.456,1.022,1.022,1.022C49.228,77.946,49.685,77.489,49.685,76.924z"/>
					<path fill="none" stroke="#FFFFFF" stroke-width="0.4242" stroke-miterlimit="10" d="M34.187,80.813
						c0-0.562-0.454-1.019-1.021-1.019c-0.562,0-1.018,0.457-1.018,1.019c0,0.567,0.456,1.022,1.018,1.022
						C33.733,81.836,34.187,81.381,34.187,80.813z"/>
					<circle fill="#FFFFFF" cx="57.433" cy="81.199" r="1.02"/>
					<path fill="#FFFFFF" d="M72.034,75.906c0-0.565-0.456-1.022-1.019-1.022s-1.022,0.457-1.022,1.022
						c0,0.562,0.459,1.018,1.022,1.018S72.034,76.468,72.034,75.906z"/>
					<circle fill="#FFFFFF" cx="63.841" cy="74.884" r="1.02"/>
					<path fill="none" stroke="#FFFFFF" stroke-width="0.4242" stroke-miterlimit="10" d="M57.468,60.022
						c0-0.562-0.459-1.018-1.022-1.018c-0.563,0-1.023,0.455-1.023,1.018c0,0.567,0.46,1.022,1.023,1.022
						C57.008,61.045,57.468,60.59,57.468,60.022z"/>
					<path fill="none" stroke="#FFFFFF" stroke-width="0.4242" stroke-miterlimit="10" d="M47.835,64.17
						c0-0.562-0.456-1.021-1.018-1.021c-0.567,0-1.022,0.458-1.022,1.021c0,0.563,0.455,1.019,1.022,1.019
						C47.379,65.188,47.835,64.733,47.835,64.17z"/>
					<path fill="none" stroke="#FFFFFF" stroke-width="0.4242" stroke-miterlimit="10" d="M40.028,55.178
						c0-0.562-0.456-1.022-1.019-1.022c-0.566,0-1.021,0.46-1.021,1.022c0,0.562,0.455,1.021,1.021,1.021
						C39.572,56.199,40.028,55.739,40.028,55.178z"/>
					<path fill="none" stroke="#FFFFFF" stroke-width="0.4242" stroke-miterlimit="10" d="M37.955,50.839
						c0-0.562-0.455-1.018-1.018-1.018c-0.562,0-1.022,0.456-1.022,1.018c0,0.567,0.46,1.021,1.022,1.021
						C37.5,51.86,37.955,51.406,37.955,50.839z"/>
					<path fill="none" stroke="#FFFFFF" stroke-width="0.4242" stroke-miterlimit="10" d="M45.16,60.214
						c0-0.562-0.461-1.018-1.023-1.018c-0.563,0-1.021,0.455-1.021,1.018c0,0.567,0.458,1.022,1.021,1.022
						C44.699,61.236,45.16,60.781,45.16,60.214z"/>
					<circle fill="#FFFFFF" cx="42.287" cy="68.093" r="1.022"/>
					<circle fill="#FFFFFF" cx="37.568" cy="68.093" r="1.02"/>
					<path fill="#FFFFFF" d="M35.016,68.218c0-0.562-0.457-1.019-1.02-1.019c-0.562,0-1.022,0.456-1.022,1.019
						c0,0.567,0.46,1.022,1.022,1.022C34.559,69.24,35.016,68.785,35.016,68.218z"/>
					
						<line fill="none" stroke="#FFFFFF" stroke-width="0.4242" stroke-miterlimit="10" x1="33.996" y1="78.267" x2="33.996" y2="69.049"/>
					<polyline fill="none" stroke="#FFFFFF" stroke-width="0.4242" stroke-miterlimit="10" points="35.016,72.304 43.085,72.304 
						45.985,69.91 					"/>
					
						<line fill="none" stroke="#FFFFFF" stroke-width="0.4242" stroke-miterlimit="10" x1="38.398" y1="68.093" x2="41.457" y2="68.093"/>
					<polyline fill="none" stroke="#FFFFFF" stroke-width="0.4242" stroke-miterlimit="10" points="28.066,74.563 28.066,69.91 
						31.191,67.071 31.191,63.236 					"/>
					<polyline fill="none" stroke="#FFFFFF" stroke-width="0.4242" stroke-miterlimit="10" points="33.996,80.813 44.967,80.813 
						48.217,77.563 					"/>
					
						<line fill="none" stroke="#FFFFFF" stroke-width="0.4242" stroke-miterlimit="10" x1="24.812" y1="60.214" x2="43.309" y2="60.214"/>
					<polyline fill="none" stroke="#FFFFFF" stroke-width="0.4242" stroke-miterlimit="10" points="45.985,64.17 39.927,64.17 
						36.1,60.214 					"/>
					<polyline fill="none" stroke="#FFFFFF" stroke-width="0.4242" stroke-miterlimit="10" points="53.894,84.763 53.894,70.865 
						56.446,67.55 56.446,60.854 					"/>
					<polyline fill="none" stroke="#FFFFFF" stroke-width="0.4242" stroke-miterlimit="10" points="53.894,78.267 56.957,74.949 
						63.079,74.949 					"/>
					<polyline fill="none" stroke="#FFFFFF" stroke-width="0.4242" stroke-miterlimit="10" points="57.784,80.813 60.178,78.424 
						69.52,78.267 70.667,76.608 					"/>
					<polyline fill="none" stroke="#FFFFFF" stroke-width="0.4242" stroke-miterlimit="10" points="15.479,54.732 20.71,54.732 
						24.728,50.839 29.512,50.839 					"/>
					<polyline fill="none" stroke="#FFFFFF" stroke-width="0.4242" stroke-miterlimit="10" points="38.116,55.178 31.608,55.178 
						27.274,50.839 					"/>
				</g>
			</g>
		</g>
	</g>
	<g>
		<g>
			<path d="M107.351,34.976h19.343c3.091,0,5.629,1.564,7.617,4.691c0.7,1.39,1.053,2.696,1.053,3.929
				c0,2.106-0.424,3.738-1.266,4.898c2.355,2.074,3.531,4.369,3.531,6.88c0,4.372-1.985,7.395-5.955,9.063
				c-1.301,0.457-2.758,0.687-4.377,0.687h-19.946l-0.16-0.158V35.133L107.351,34.976z M112.12,40.113v6.931h14.493
				c2.159,0,3.355-1.255,3.586-3.767c0-1.301-0.782-2.294-2.347-2.979l-1.239-0.185H112.12z M112.12,52.291v7.534h16.548
				c2.091,0,3.242-1.371,3.453-4.111c0-1.403-0.754-2.485-2.268-3.239l-1.186-0.184H112.12z"/>
			<path d="M139.363,34.897h1.766c1.301,0,2.212,0.543,2.741,1.633l7.035,8.669l8.381-10.067l1.396-0.236h1.765
				c1.403,0,2.371,0.474,2.898,1.422l-11.489,14.808v7.988c0,2.898-1.327,4.83-3.98,5.796c-0.611,0.142-1.282,0.212-2,0.212
				l-0.078-0.08V51.127l-11.332-14.596C136.466,35.671,137.43,35.123,139.363,34.897z"/>
			<path d="M195.661,34.897c0.091,0,0.132,0.069,0.132,0.209c0,2.496-1.247,4.252-3.743,5.272c-0.579,0.194-1.209,0.291-1.894,0.291
				h-5.906v17.556h-5.78l0.008-17.556h-6.162c-2.585,0-4.368-1.259-5.352-3.771c-0.194-0.58-0.291-1.228-0.291-1.95l0.078-0.052
				H195.661z"/>
			<path d="M208.424,34.976h16.442L225,35.133c0,2.777-1.343,4.7-4.034,5.771c-0.598,0.193-1.353,0.29-2.267,0.29h-9.144
				c-3.178,0-5.755,1.503-7.721,4.507c-0.406,0.772-0.607,1.247-0.607,1.421h19.136l0.156,0.161c0,2.774-1.352,4.699-4.06,5.771
				c-0.594,0.194-1.343,0.291-2.241,0.291H201.31c0.807,2,2.186,3.531,4.135,4.585c1.302,0.647,2.521,0.974,3.664,0.974h9.591
				c2.988,0,4.989,1.345,6.011,4.034c0.193,0.631,0.29,1.307,0.29,2.027l-0.134,0.158h-15.071c-6.028,0-10.629-2.829-13.812-8.486
				c-1.001-2.23-1.502-4.428-1.502-6.587c0-3.374,1.075-6.528,3.218-9.462c2.562-2.755,4.917-4.383,7.061-4.875
				C206.062,35.238,207.28,34.995,208.424,34.976z"/>
		</g>
		<rect x="178.47" y="60.242" width="5.787" height="4.872"/>
	</g>
	<g>
		<circle cx="63.539" cy="50" r="38.539"/>
		<g>
			<path fill="#FFFFFF" d="M32.212,49.982c0-2.183,0.478-4.303,1.436-6.355c1.743-3.492,4.447-5.928,8.115-7.304
				c1.457-0.621,3.644-0.929,6.557-0.929h13.238v5.667H47.612c-4.198,0-7.125,1.806-8.783,5.42c-0.524,1.175-0.79,2.342-0.79,3.501
				c0,1.172,0.266,2.339,0.79,3.5c1.658,3.616,4.585,5.425,8.783,5.425h5.852v5.646h-5.144c-2.914,0-5.1-0.312-6.557-0.931
				c-3.668-1.364-6.373-3.793-8.115-7.286C32.69,54.287,32.212,52.17,32.212,49.982z M46.298,47.169h15.261v17.383H55.81V52.776
				h-9.512V47.169z"/>
		</g>
		<g>
			<path fill="#FFFFFF" d="M71.138,42.087v-6.622h14.717h6.734v21.879v7.281H72.456h-6.698v-23.21l6.039,0.012v16.577h14.717V42.087
				H71.138z"/>
		</g>
		<g opacity="0.3">
			<defs>
				<circle id="SVGID_3_" opacity="0.3" cx="63.539" cy="50" r="38.539"/>
			</defs>
			<clipPath id="SVGID_4_">
				<use xlink:href="#SVGID_3_"  overflow="visible"/>
			</clipPath>
			<g clip-path="url(#SVGID_4_)">
				<polyline fill="none" stroke="#FFFFFF" stroke-width="0.4242" stroke-miterlimit="10" points="25.44,18.667 44.32,18.667 
					46.617,21.342 				"/>
				<circle fill="#FFFFFF" cx="47.255" cy="21.983" r="1.021"/>
				<path fill="#FFFFFF" d="M48.276,27.688c0,0.566-0.46,1.022-1.023,1.022c-0.562,0-1.019-0.456-1.019-1.022
					c0-0.562,0.457-1.018,1.019-1.018C47.816,26.67,48.276,27.126,48.276,27.688z"/>
				<circle fill="#FFFFFF" cx="31.821" cy="34.131" r="1.02"/>
				<path fill="none" stroke="#FFFFFF" stroke-width="0.4242" stroke-miterlimit="10" d="M29.716,21.635
					c0,0.567-0.459,1.021-1.023,1.021c-0.562,0-1.018-0.455-1.018-1.021c0-0.562,0.456-1.019,1.018-1.019
					C29.257,20.617,29.716,21.073,29.716,21.635z"/>
				<path fill="#FFFFFF" d="M50.316,20.004c0,0.564-0.461,1.023-1.022,1.023c-0.563,0-1.018-0.459-1.018-1.023
					c0-0.562,0.455-1.018,1.018-1.018C49.855,18.986,50.316,19.442,50.316,20.004z"/>
				<circle fill="none" stroke="#FFFFFF" stroke-width="0.4242" stroke-miterlimit="10" cx="33.795" cy="16.115" r="1.021"/>
				<path fill="#FFFFFF" d="M59.085,15.733c0,0.562-0.456,1.018-1.022,1.018c-0.563,0-1.019-0.456-1.019-1.018
					c0-0.563,0.456-1.023,1.019-1.023C58.629,14.71,59.085,15.17,59.085,15.733z"/>
				<path fill="#FFFFFF" d="M72.665,21.027c0,0.563-0.455,1.019-1.022,1.019c-0.562,0-1.018-0.455-1.018-1.019
					c0-0.566,0.456-1.023,1.018-1.023C72.21,20.004,72.665,20.46,72.665,21.027z"/>
				<circle fill="#FFFFFF" cx="64.469" cy="22.045" r="1.02"/>
				<path fill="none" stroke="#FFFFFF" stroke-width="0.4242" stroke-miterlimit="10" d="M58.095,36.906
					c0,0.563-0.455,1.022-1.017,1.022c-0.567,0-1.022-0.458-1.022-1.022c0-0.563,0.456-1.018,1.022-1.018
					C57.64,35.888,58.095,36.343,58.095,36.906z"/>
				<path fill="#FFFFFF" d="M48.466,32.762c0,0.563-0.459,1.018-1.022,1.018c-0.562,0-1.019-0.455-1.019-1.018
					c0-0.566,0.457-1.022,1.019-1.022C48.007,31.74,48.466,32.196,48.466,32.762z"/>
				<circle fill="none" stroke="#FFFFFF" stroke-width="0.4242" stroke-miterlimit="10" cx="46.424" cy="41.752" r="1.02"/>
				<path fill="none" stroke="#FFFFFF" stroke-width="0.4242" stroke-miterlimit="10" d="M38.586,46.09
					c0,0.562-0.456,1.022-1.022,1.022c-0.563,0-1.018-0.459-1.018-1.022c0-0.563,0.455-1.021,1.018-1.021
					C38.131,45.069,38.586,45.527,38.586,46.09z"/>
				<path fill="none" stroke="#FFFFFF" stroke-width="0.4242" stroke-miterlimit="10" d="M45.787,36.714
					c0,0.564-0.456,1.023-1.018,1.023c-0.568,0-1.024-0.459-1.024-1.023c0-0.562,0.456-1.02,1.024-1.02
					C45.331,35.694,45.787,36.152,45.787,36.714z"/>
				<path fill="#FFFFFF" d="M43.937,28.839c0,0.562-0.456,1.018-1.019,1.018c-0.566,0-1.021-0.456-1.021-1.018
					c0-0.565,0.455-1.021,1.021-1.021C43.481,27.818,43.937,28.274,43.937,28.839z"/>
				<path fill="#FFFFFF" d="M39.216,28.839c0,0.562-0.455,1.018-1.018,1.018c-0.562,0-1.022-0.456-1.022-1.018
					c0-0.565,0.461-1.021,1.022-1.021C38.761,27.818,39.216,28.274,39.216,28.839z"/>
				<path fill="#FFFFFF" d="M35.646,28.711c0,0.562-0.456,1.022-1.022,1.022c-0.563,0-1.019-0.461-1.019-1.022
					c0-0.563,0.456-1.022,1.019-1.022C35.19,27.688,35.646,28.147,35.646,28.711z"/>
				
					<line fill="none" stroke="#FFFFFF" stroke-width="0.4242" stroke-miterlimit="10" x1="34.624" y1="18.667" x2="34.624" y2="27.88"/>
				<polyline fill="none" stroke="#FFFFFF" stroke-width="0.4242" stroke-miterlimit="10" points="35.646,24.629 43.711,24.629 
					46.617,27.02 				"/>
				
					<line fill="none" stroke="#FFFFFF" stroke-width="0.4242" stroke-miterlimit="10" x1="39.025" y1="28.839" x2="42.086" y2="28.839"/>
				<polyline fill="none" stroke="#FFFFFF" stroke-width="0.4242" stroke-miterlimit="10" points="28.693,22.365 28.693,27.02 
					31.819,29.857 31.819,33.693 				"/>
				<polyline fill="none" stroke="#FFFFFF" stroke-width="0.4242" stroke-miterlimit="10" points="34.624,16.115 45.595,16.115 
					48.849,19.369 				"/>
				
					<line fill="none" stroke="#FFFFFF" stroke-width="0.4242" stroke-miterlimit="10" x1="25.44" y1="36.714" x2="43.937" y2="36.714"/>
				<polyline fill="none" stroke="#FFFFFF" stroke-width="0.4242" stroke-miterlimit="10" points="46.617,32.762 40.558,32.762 
					36.731,36.714 				"/>
				<polyline fill="none" stroke="#FFFFFF" stroke-width="0.4242" stroke-miterlimit="10" points="54.525,12.166 54.525,26.063 
					57.078,29.38 57.078,36.079 				"/>
				<polyline fill="none" stroke="#FFFFFF" stroke-width="0.4242" stroke-miterlimit="10" points="54.525,18.667 57.584,21.983 
					63.71,21.983 				"/>
				<polyline fill="none" stroke="#FFFFFF" stroke-width="0.4242" stroke-miterlimit="10" points="58.415,16.115 60.805,18.506 
					70.151,18.667 71.298,20.325 				"/>
				<polyline fill="none" stroke="#FFFFFF" stroke-width="0.4242" stroke-miterlimit="10" points="22.899,42.201 28.127,42.201 
					32.145,46.09 36.928,46.09 				"/>
				<polyline fill="none" stroke="#FFFFFF" stroke-width="0.4242" stroke-miterlimit="10" points="45.533,41.752 39.025,41.752 
					34.69,46.09 				"/>
				<polyline fill="none" stroke="#FFFFFF" stroke-width="0.4242" stroke-miterlimit="10" points="99.349,52.774 80.469,52.774 
					78.175,55.451 				"/>
				<path fill="none" stroke="#FFFFFF" stroke-width="0.4242" stroke-miterlimit="10" d="M76.513,56.091
					c0,0.563,0.461,1.019,1.022,1.019c0.563,0,1.022-0.455,1.022-1.019c0-0.565-0.459-1.022-1.022-1.022
					C76.974,55.068,76.513,55.525,76.513,56.091z"/>
				<path fill="none" stroke="#FFFFFF" stroke-width="0.4242" stroke-miterlimit="10" d="M76.513,61.797
					c0,0.562,0.461,1.022,1.022,1.022c0.563,0,1.022-0.461,1.022-1.022c0-0.563-0.459-1.019-1.022-1.019
					C76.974,60.778,76.513,61.233,76.513,61.797z"/>
				<circle fill="#FFFFFF" cx="92.97" cy="68.238" r="1.022"/>
				<circle fill="#FFFFFF" cx="96.095" cy="55.743" r="1.022"/>
				<circle fill="none" stroke="#FFFFFF" stroke-width="0.4242" stroke-miterlimit="10" cx="75.493" cy="54.112" r="1.02"/>
				<path fill="none" stroke="#FFFFFF" stroke-width="0.4242" stroke-miterlimit="10" d="M89.974,50.224
					c0,0.563,0.456,1.017,1.019,1.017c0.562,0,1.022-0.454,1.022-1.017c0-0.564-0.461-1.022-1.022-1.022
					C90.429,49.201,89.974,49.659,89.974,50.224z"/>
				<path fill="none" stroke="#FFFFFF" stroke-width="0.4242" stroke-miterlimit="10" d="M65.705,49.841
					c0,0.563,0.458,1.019,1.022,1.019c0.562,0,1.018-0.455,1.018-1.019c0-0.567-0.456-1.022-1.018-1.022
					C66.163,48.819,65.705,49.274,65.705,49.841z"/>
				<circle fill="none" stroke="#FFFFFF" stroke-width="0.4242" stroke-miterlimit="10" cx="52.722" cy="55.131" r="1.02"/>
				<path fill="none" stroke="#FFFFFF" stroke-width="0.4242" stroke-miterlimit="10" d="M59.3,56.153
					c0,0.562,0.455,1.022,1.018,1.022c0.568,0,1.022-0.46,1.022-1.022c0-0.562-0.455-1.022-1.022-1.022
					C59.755,55.131,59.3,55.592,59.3,56.153z"/>
				<path fill="#FFFFFF" d="M66.694,71.015c0,0.562,0.455,1.017,1.022,1.017c0.562,0,1.018-0.455,1.018-1.017
					c0-0.564-0.456-1.022-1.018-1.022C67.149,69.992,66.694,70.45,66.694,71.015z"/>
				<circle fill="#FFFFFF" cx="77.345" cy="66.867" r="1.022"/>
				<circle fill="#FFFFFF" cx="78.365" cy="75.859" r="1.021"/>
				<circle fill="#FFFFFF" cx="84.678" cy="80.198" r="1.021"/>
				<path fill="#FFFFFF" d="M79.001,70.821c0,0.564,0.457,1.019,1.024,1.019c0.563,0,1.019-0.454,1.019-1.019
					c0-0.562-0.456-1.021-1.019-1.021C79.458,69.801,79.001,70.259,79.001,70.821z"/>
				<path fill="none" stroke="#FFFFFF" stroke-width="0.4242" stroke-miterlimit="10" d="M80.852,62.943
					c0,0.566,0.455,1.022,1.022,1.022c0.562,0,1.018-0.456,1.018-1.022c0-0.562-0.456-1.019-1.018-1.019
					C81.307,61.925,80.852,62.382,80.852,62.943z"/>
				<path fill="none" stroke="#FFFFFF" stroke-width="0.4242" stroke-miterlimit="10" d="M85.574,62.943
					c0,0.566,0.455,1.022,1.017,1.022c0.566,0,1.022-0.456,1.022-1.022c0-0.562-0.456-1.019-1.022-1.019
					C86.028,61.925,85.574,62.382,85.574,62.943z"/>
				<circle fill="none" stroke="#FFFFFF" stroke-width="0.4242" stroke-miterlimit="10" cx="90.163" cy="62.819" r="1.021"/>
				
					<line fill="none" stroke="#FFFFFF" stroke-width="0.4242" stroke-miterlimit="10" x1="90.165" y1="52.774" x2="90.165" y2="61.988"/>
				<polyline fill="none" stroke="#FFFFFF" stroke-width="0.4242" stroke-miterlimit="10" points="89.142,58.738 81.077,58.738 
					78.175,61.127 				"/>
				
					<line fill="none" stroke="#FFFFFF" stroke-width="0.4242" stroke-miterlimit="10" x1="85.763" y1="62.943" x2="82.702" y2="62.943"/>
				<polyline fill="none" stroke="#FFFFFF" stroke-width="0.4242" stroke-miterlimit="10" points="96.095,56.473 96.095,61.127 
					92.97,63.966 92.97,67.801 				"/>
				<polyline fill="none" stroke="#FFFFFF" stroke-width="0.4242" stroke-miterlimit="10" points="90.165,50.224 79.194,50.224 
					75.94,53.473 				"/>
				
					<line fill="none" stroke="#FFFFFF" stroke-width="0.4242" stroke-miterlimit="10" x1="99.349" y1="70.821" x2="80.852" y2="70.821"/>
				<polyline fill="none" stroke="#FFFFFF" stroke-width="0.4242" stroke-miterlimit="10" points="78.175,66.867 84.231,66.867 
					88.058,70.821 				"/>
				<polyline fill="none" stroke="#FFFFFF" stroke-width="0.4242" stroke-miterlimit="10" points="70.265,46.275 70.265,60.171 
					67.716,63.487 67.716,70.184 				"/>
				<polyline fill="none" stroke="#FFFFFF" stroke-width="0.4242" stroke-miterlimit="10" points="70.265,52.774 67.204,56.091 
					61.083,56.091 				"/>
				<polyline fill="none" stroke="#FFFFFF" stroke-width="0.4242" stroke-miterlimit="10" points="65.952,50.224 63.558,52.611 
					54.217,52.774 53.069,54.433 				"/>
				<polyline fill="none" stroke="#FFFFFF" stroke-width="0.4242" stroke-miterlimit="10" points="99.349,76.308 94.117,76.308 
					90.099,80.198 85.315,80.198 				"/>
				<polyline fill="none" stroke="#FFFFFF" stroke-width="0.4242" stroke-miterlimit="10" points="79.256,75.859 85.763,75.859 
					90.099,80.198 				"/>
				<polyline fill="none" stroke="#FFFFFF" stroke-width="0.4242" stroke-miterlimit="10" points="108.693,36.948 89.813,36.948 
					87.52,34.268 				"/>
				<circle fill="#FFFFFF" cx="86.881" cy="33.631" r="1.021"/>
				<path fill="#FFFFFF" d="M85.86,27.921c0-0.562,0.457-1.019,1.019-1.019c0.566,0,1.023,0.457,1.023,1.019
					c0,0.563-0.457,1.022-1.023,1.022C86.317,28.944,85.86,28.485,85.86,27.921z"/>
				<path fill="none" stroke="#FFFFFF" stroke-width="0.4242" stroke-miterlimit="10" d="M101.295,21.48
					c0-0.562,0.456-1.021,1.019-1.021c0.566,0,1.022,0.458,1.022,1.021c0,0.563-0.456,1.023-1.022,1.023
					C101.75,22.503,101.295,22.043,101.295,21.48z"/>
				<path fill="none" stroke="#FFFFFF" stroke-width="0.4242" stroke-miterlimit="10" d="M104.42,33.975
					c0-0.563,0.456-1.018,1.019-1.018c0.566,0,1.022,0.455,1.022,1.018c0,0.562-0.457,1.022-1.022,1.022
					C104.875,34.997,104.42,34.537,104.42,33.975z"/>
				<path fill="#FFFFFF" d="M83.821,35.606c0-0.563,0.456-1.019,1.018-1.019c0.564,0,1.021,0.456,1.021,1.019
					c0,0.567-0.457,1.022-1.021,1.022C84.277,36.628,83.821,36.173,83.821,35.606z"/>
				<path fill="#FFFFFF" d="M99.318,39.499c0-0.566,0.455-1.021,1.021-1.021c0.562,0,1.019,0.455,1.019,1.021
					c0,0.563-0.457,1.019-1.019,1.019C99.772,40.518,99.318,40.062,99.318,39.499z"/>
				<circle fill="none" stroke="#FFFFFF" stroke-width="0.4242" stroke-miterlimit="10" cx="76.072" cy="39.881" r="1.021"/>
				<circle fill="#FFFFFF" cx="62.491" cy="34.587" r="1.02"/>
				<path fill="#FFFFFF" d="M68.644,33.565c0-0.562,0.455-1.019,1.022-1.019c0.563,0,1.018,0.456,1.018,1.019
					c0,0.565-0.455,1.022-1.018,1.022C69.099,34.587,68.644,34.13,68.644,33.565z"/>
				<path fill="#FFFFFF" d="M76.037,18.704c0-0.562,0.458-1.018,1.022-1.018s1.019,0.455,1.019,1.018
					c0,0.567-0.455,1.023-1.019,1.023S76.037,19.271,76.037,18.704z"/>
				<path fill="#FFFFFF" d="M85.67,22.852c0-0.562,0.456-1.021,1.018-1.021c0.566,0,1.022,0.46,1.022,1.021
					c0,0.563-0.456,1.022-1.022,1.022C86.125,23.874,85.67,23.415,85.67,22.852z"/>
				<circle fill="none" stroke="#FFFFFF" stroke-width="0.4242" stroke-miterlimit="10" cx="87.708" cy="13.858" r="1.02"/>
				<path fill="none" stroke="#FFFFFF" stroke-width="0.4242" stroke-miterlimit="10" d="M93.004,9.521
					c0-0.563,0.456-1.019,1.019-1.019s1.022,0.456,1.022,1.019c0,0.566-0.459,1.022-1.022,1.022S93.004,10.087,93.004,9.521z"/>
				<circle fill="none" stroke="#FFFFFF" stroke-width="0.4242" stroke-miterlimit="10" cx="89.366" cy="18.897" r="1.021"/>
				<circle fill="#FFFFFF" cx="91.217" cy="26.774" r="1.021"/>
				<path fill="none" stroke="#FFFFFF" stroke-width="0.4242" stroke-miterlimit="10" d="M94.917,26.774
					c0-0.562,0.456-1.021,1.022-1.021c0.562,0,1.018,0.459,1.018,1.021c0,0.562-0.456,1.019-1.018,1.019
					C95.373,27.793,94.917,27.337,94.917,26.774z"/>
				<circle fill="none" stroke="#FFFFFF" stroke-width="0.4242" stroke-miterlimit="10" cx="99.51" cy="26.903" r="1.022"/>
				
					<line fill="none" stroke="#FFFFFF" stroke-width="0.4242" stroke-miterlimit="10" x1="99.508" y1="36.948" x2="99.508" y2="27.731"/>
				<polyline fill="none" stroke="#FFFFFF" stroke-width="0.4242" stroke-miterlimit="10" points="98.488,30.985 90.42,30.985 
					87.52,28.591 				"/>
				
					<line fill="none" stroke="#FFFFFF" stroke-width="0.4242" stroke-miterlimit="10" x1="95.107" y1="26.774" x2="92.045" y2="26.774"/>
				<polyline fill="none" stroke="#FFFFFF" stroke-width="0.4242" stroke-miterlimit="10" points="105.439,33.25 105.439,28.591 
					102.313,25.753 102.313,21.921 				"/>
				<polyline fill="none" stroke="#FFFFFF" stroke-width="0.4242" stroke-miterlimit="10" points="99.508,39.499 88.538,39.499 
					85.288,36.245 				"/>
				
					<line fill="none" stroke="#FFFFFF" stroke-width="0.4242" stroke-miterlimit="10" x1="108.693" y1="18.897" x2="90.196" y2="18.897"/>
				<polyline fill="none" stroke="#FFFFFF" stroke-width="0.4242" stroke-miterlimit="10" points="87.52,22.852 93.578,22.852 
					97.405,18.897 				"/>
				<polyline fill="none" stroke="#FFFFFF" stroke-width="0.4242" stroke-miterlimit="10" points="79.611,43.444 79.611,29.547 
					77.059,26.231 77.059,19.536 				"/>
				<polyline fill="none" stroke="#FFFFFF" stroke-width="0.4242" stroke-miterlimit="10" points="79.611,36.948 76.548,33.631 
					70.427,33.631 				"/>
				<polyline fill="none" stroke="#FFFFFF" stroke-width="0.4242" stroke-miterlimit="10" points="75.721,39.499 73.328,37.106 
					63.986,36.948 62.839,35.29 				"/>
				<polyline fill="none" stroke="#FFFFFF" stroke-width="0.4242" stroke-miterlimit="10" points="108.693,13.413 103.464,13.413 
					99.446,9.522 94.663,9.522 				"/>
				<polyline fill="none" stroke="#FFFFFF" stroke-width="0.4242" stroke-miterlimit="10" points="88.604,13.858 95.107,13.858 
					99.446,9.522 				"/>
				<polyline fill="none" stroke="#FFFFFF" stroke-width="0.4242" stroke-miterlimit="10" points="24.812,78.267 43.691,78.267 
					45.985,75.586 				"/>
				<circle fill="#FFFFFF" cx="46.624" cy="74.949" r="1.021"/>
				<path fill="#FFFFFF" d="M47.645,69.24c0-0.562-0.457-1.022-1.019-1.022c-0.566,0-1.022,0.461-1.022,1.022
					c0,0.563,0.456,1.021,1.022,1.021C47.188,70.262,47.645,69.804,47.645,69.24z"/>
				<path fill="#FFFFFF" d="M32.21,62.799c0-0.562-0.456-1.022-1.019-1.022c-0.566,0-1.023,0.461-1.023,1.022
					c0,0.563,0.457,1.019,1.023,1.019C31.754,63.817,32.21,63.362,32.21,62.799z"/>
				<path fill="none" stroke="#FFFFFF" stroke-width="0.4242" stroke-miterlimit="10" d="M29.085,75.294
					c0-0.563-0.455-1.022-1.019-1.022c-0.567,0-1.022,0.459-1.022,1.022c0,0.562,0.456,1.022,1.022,1.022
					C28.63,76.316,29.085,75.855,29.085,75.294z"/>
				<path fill="#FFFFFF" d="M49.685,76.924c0-0.562-0.457-1.018-1.019-1.018c-0.566,0-1.021,0.455-1.021,1.018
					c0,0.565,0.455,1.022,1.021,1.022C49.228,77.946,49.685,77.489,49.685,76.924z"/>
				<path fill="none" stroke="#FFFFFF" stroke-width="0.4242" stroke-miterlimit="10" d="M34.187,80.813
					c0-0.562-0.454-1.019-1.021-1.019c-0.562,0-1.018,0.457-1.018,1.019c0,0.567,0.456,1.022,1.018,1.022
					C33.733,81.836,34.187,81.381,34.187,80.813z"/>
				<circle fill="#FFFFFF" cx="57.433" cy="81.199" r="1.02"/>
				<path fill="#FFFFFF" d="M72.034,75.906c0-0.565-0.455-1.022-1.019-1.022c-0.563,0-1.021,0.457-1.021,1.022
					c0,0.562,0.458,1.018,1.021,1.018C71.579,76.924,72.034,76.468,72.034,75.906z"/>
				<circle fill="#FFFFFF" cx="63.841" cy="74.884" r="1.02"/>
				<path fill="none" stroke="#FFFFFF" stroke-width="0.4242" stroke-miterlimit="10" d="M57.468,60.022
					c0-0.562-0.459-1.018-1.022-1.018s-1.022,0.455-1.022,1.018c0,0.567,0.459,1.022,1.022,1.022S57.468,60.59,57.468,60.022z"/>
				<path fill="none" stroke="#FFFFFF" stroke-width="0.4242" stroke-miterlimit="10" d="M47.835,64.17
					c0-0.562-0.456-1.021-1.018-1.021c-0.566,0-1.022,0.458-1.022,1.021c0,0.563,0.456,1.019,1.022,1.019
					C47.379,65.188,47.835,64.733,47.835,64.17z"/>
				<path fill="none" stroke="#FFFFFF" stroke-width="0.4242" stroke-miterlimit="10" d="M40.028,55.178
					c0-0.562-0.456-1.022-1.019-1.022c-0.566,0-1.021,0.46-1.021,1.022c0,0.562,0.455,1.021,1.021,1.021
					C39.572,56.199,40.028,55.739,40.028,55.178z"/>
				<path fill="none" stroke="#FFFFFF" stroke-width="0.4242" stroke-miterlimit="10" d="M37.955,50.839
					c0-0.562-0.455-1.018-1.018-1.018c-0.562,0-1.022,0.456-1.022,1.018c0,0.567,0.46,1.021,1.022,1.021
					C37.5,51.86,37.955,51.406,37.955,50.839z"/>
				<path fill="none" stroke="#FFFFFF" stroke-width="0.4242" stroke-miterlimit="10" d="M45.16,60.214
					c0-0.562-0.461-1.018-1.023-1.018c-0.563,0-1.021,0.455-1.021,1.018c0,0.567,0.458,1.022,1.021,1.022
					C44.699,61.236,45.16,60.781,45.16,60.214z"/>
				<circle fill="#FFFFFF" cx="42.287" cy="68.093" r="1.022"/>
				<circle fill="#FFFFFF" cx="37.568" cy="68.093" r="1.02"/>
				<path fill="#FFFFFF" d="M35.016,68.218c0-0.562-0.457-1.019-1.02-1.019c-0.562,0-1.022,0.456-1.022,1.019
					c0,0.567,0.46,1.022,1.022,1.022C34.559,69.24,35.016,68.785,35.016,68.218z"/>
				
					<line fill="none" stroke="#FFFFFF" stroke-width="0.4242" stroke-miterlimit="10" x1="33.996" y1="78.267" x2="33.996" y2="69.049"/>
				<polyline fill="none" stroke="#FFFFFF" stroke-width="0.4242" stroke-miterlimit="10" points="35.016,72.304 43.085,72.304 
					45.985,69.91 				"/>
				
					<line fill="none" stroke="#FFFFFF" stroke-width="0.4242" stroke-miterlimit="10" x1="38.398" y1="68.093" x2="41.457" y2="68.093"/>
				<polyline fill="none" stroke="#FFFFFF" stroke-width="0.4242" stroke-miterlimit="10" points="28.066,74.563 28.066,69.91 
					31.191,67.071 31.191,63.236 				"/>
				<polyline fill="none" stroke="#FFFFFF" stroke-width="0.4242" stroke-miterlimit="10" points="33.996,80.813 44.967,80.813 
					48.217,77.563 				"/>
				
					<line fill="none" stroke="#FFFFFF" stroke-width="0.4242" stroke-miterlimit="10" x1="24.812" y1="60.214" x2="43.309" y2="60.214"/>
				<polyline fill="none" stroke="#FFFFFF" stroke-width="0.4242" stroke-miterlimit="10" points="45.985,64.17 39.927,64.17 
					36.1,60.214 				"/>
				<polyline fill="none" stroke="#FFFFFF" stroke-width="0.4242" stroke-miterlimit="10" points="53.894,84.763 53.894,70.865 
					56.446,67.55 56.446,60.854 				"/>
				<polyline fill="none" stroke="#FFFFFF" stroke-width="0.4242" stroke-miterlimit="10" points="53.894,78.267 56.957,74.949 
					63.079,74.949 				"/>
				<polyline fill="none" stroke="#FFFFFF" stroke-width="0.4242" stroke-miterlimit="10" points="57.784,80.813 60.178,78.424 
					69.52,78.267 70.667,76.608 				"/>
				<polyline fill="none" stroke="#FFFFFF" stroke-width="0.4242" stroke-miterlimit="10" points="15.479,54.732 20.71,54.732 
					24.728,50.839 29.512,50.839 				"/>
				<polyline fill="none" stroke="#FFFFFF" stroke-width="0.4242" stroke-miterlimit="10" points="38.116,55.178 31.608,55.178 
					27.274,50.839 				"/>
			</g>
		</g>
	</g>
</g>
</svg>
