<?xml version="1.0" encoding="utf-8"?>
<!-- Generator: Adobe Illustrator 16.0.5, SVG Export Plug-In . SVG Version: 6.00 Build 0)  -->
<!DOCTYPE svg PUBLIC "-//W3C//DTD SVG 1.1//EN" "http://www.w3.org/Graphics/SVG/1.1/DTD/svg11.dtd">
<svg version="1.1" id="Layer_1" xmlns="http://www.w3.org/2000/svg" xmlns:xlink="http://www.w3.org/1999/xlink" x="0px" y="0px"
	 width="250px" height="100px" viewBox="0 0 250 100" enable-background="new 0 0 250 100" xml:space="preserve">
<rect id="Background" y="-1.5" width="250" height="103"/>
<g>
	<g>
		<circle fill="#1E66AF" cx="63.538" cy="50.014" r="38.538"/>
		<g>
			<path fill="#FFFFFF" d="M32.212,49.995c0-2.183,0.477-4.303,1.436-6.355c1.743-3.492,4.447-5.927,8.116-7.304
				c1.457-0.621,3.644-0.929,6.557-0.929h13.237v5.667H47.611c-4.197,0-7.124,1.806-8.782,5.419c-0.524,1.175-0.79,2.342-0.79,3.501
				c0,1.173,0.266,2.339,0.79,3.5c1.658,3.617,4.585,5.426,8.782,5.426h5.853v5.646h-5.144c-2.914,0-5.101-0.312-6.557-0.931
				c-3.668-1.364-6.373-3.793-8.116-7.286C32.689,54.3,32.212,52.184,32.212,49.995z M46.297,47.182h15.261v17.384H55.81V52.79
				h-9.513V47.182z"/>
		</g>
		<g>
			<path fill="#FFFFFF" d="M71.137,42.1v-6.622h14.718h6.733v21.88v7.28H72.455h-6.698v-23.21l6.039,0.012v16.577h14.717V42.1
				H71.137z"/>
		</g>
		<g opacity="0.3">
			<defs>
				<circle id="SVGID_1_" opacity="0.3" cx="63.538" cy="50.014" r="38.538"/>
			</defs>
			<clipPath id="SVGID_2_">
				<use xlink:href="#SVGID_1_"  overflow="visible"/>
			</clipPath>
			<g clip-path="url(#SVGID_2_)">
				<polyline fill="none" stroke="#FFFFFF" stroke-width="0.4242" stroke-miterlimit="10" points="25.44,18.679 44.319,18.679 
					46.617,21.356 				"/>
				<circle fill="#FFFFFF" cx="47.255" cy="21.996" r="1.021"/>
				<path fill="#FFFFFF" d="M48.275,27.701c0,0.567-0.46,1.022-1.023,1.022c-0.562,0-1.018-0.455-1.018-1.022
					c0-0.562,0.457-1.018,1.018-1.018C47.815,26.683,48.275,27.14,48.275,27.701z"/>
				<circle fill="#FFFFFF" cx="31.82" cy="34.144" r="1.02"/>
				<path fill="none" stroke="#FFFFFF" stroke-width="0.4242" stroke-miterlimit="10" d="M29.716,21.648
					c0,0.567-0.459,1.022-1.023,1.022c-0.562,0-1.019-0.455-1.019-1.022c0-0.562,0.456-1.018,1.019-1.018
					C29.257,20.63,29.716,21.086,29.716,21.648z"/>
				<path fill="#FFFFFF" d="M50.315,20.017c0,0.563-0.46,1.023-1.022,1.023c-0.563,0-1.018-0.459-1.018-1.023
					c0-0.562,0.455-1.017,1.018-1.017C49.855,19,50.315,19.455,50.315,20.017z"/>
				<circle fill="none" stroke="#FFFFFF" stroke-width="0.4242" stroke-miterlimit="10" cx="33.795" cy="16.128" r="1.021"/>
				<path fill="#FFFFFF" d="M59.084,15.746c0,0.563-0.456,1.018-1.023,1.018c-0.562,0-1.018-0.455-1.018-1.018
					s0.455-1.022,1.018-1.022C58.628,14.723,59.084,15.183,59.084,15.746z"/>
				<path fill="#FFFFFF" d="M72.665,21.04c0,0.563-0.455,1.018-1.022,1.018c-0.562,0-1.018-0.455-1.018-1.018
					c0-0.566,0.456-1.023,1.018-1.023C72.21,20.017,72.665,20.474,72.665,21.04z"/>
				<path fill="#FFFFFF" d="M65.489,22.058c0,0.563-0.456,1.023-1.019,1.023s-1.022-0.46-1.022-1.023
					c0-0.562,0.459-1.018,1.022-1.018S65.489,21.496,65.489,22.058z"/>
				<path fill="none" stroke="#FFFFFF" stroke-width="0.4242" stroke-miterlimit="10" d="M58.094,36.919
					c0,0.563-0.455,1.021-1.017,1.021c-0.568,0-1.022-0.458-1.022-1.021S56.51,35.9,57.078,35.9
					C57.64,35.9,58.094,36.356,58.094,36.919z"/>
				<path fill="#FFFFFF" d="M48.466,32.775c0,0.563-0.459,1.018-1.022,1.018c-0.562,0-1.019-0.455-1.019-1.018
					c0-0.567,0.457-1.022,1.019-1.022C48.007,31.753,48.466,32.208,48.466,32.775z"/>
				<circle fill="none" stroke="#FFFFFF" stroke-width="0.4242" stroke-miterlimit="10" cx="46.424" cy="41.765" r="1.02"/>
				<path fill="none" stroke="#FFFFFF" stroke-width="0.4242" stroke-miterlimit="10" d="M38.586,46.103
					c0,0.562-0.455,1.022-1.022,1.022c-0.563,0-1.018-0.459-1.018-1.022c0-0.563,0.455-1.021,1.018-1.021
					C38.131,45.082,38.586,45.54,38.586,46.103z"/>
				<path fill="none" stroke="#FFFFFF" stroke-width="0.4242" stroke-miterlimit="10" d="M45.786,36.727
					c0,0.563-0.456,1.023-1.018,1.023c-0.568,0-1.023-0.459-1.023-1.023c0-0.562,0.455-1.021,1.023-1.021
					C45.331,35.707,45.786,36.165,45.786,36.727z"/>
				<path fill="#FFFFFF" d="M43.937,28.853c0,0.562-0.456,1.018-1.019,1.018c-0.566,0-1.021-0.456-1.021-1.018
					c0-0.566,0.455-1.022,1.021-1.022C43.481,27.831,43.937,28.287,43.937,28.853z"/>
				<path fill="#FFFFFF" d="M39.216,28.853c0,0.562-0.455,1.018-1.019,1.018c-0.562,0-1.022-0.456-1.022-1.018
					c0-0.566,0.46-1.022,1.022-1.022C38.761,27.831,39.216,28.287,39.216,28.853z"/>
				<path fill="#FFFFFF" d="M35.646,28.724c0,0.562-0.455,1.022-1.021,1.022c-0.563,0-1.019-0.46-1.019-1.022
					c0-0.563,0.456-1.022,1.019-1.022C35.19,27.701,35.646,28.161,35.646,28.724z"/>
				
					<line fill="none" stroke="#FFFFFF" stroke-width="0.4242" stroke-miterlimit="10" x1="34.624" y1="18.679" x2="34.624" y2="27.894"/>
				<polyline fill="none" stroke="#FFFFFF" stroke-width="0.4242" stroke-miterlimit="10" points="35.646,24.643 43.711,24.643 
					46.617,27.033 				"/>
				
					<line fill="none" stroke="#FFFFFF" stroke-width="0.4242" stroke-miterlimit="10" x1="39.025" y1="28.853" x2="42.086" y2="28.853"/>
				<polyline fill="none" stroke="#FFFFFF" stroke-width="0.4242" stroke-miterlimit="10" points="28.693,22.377 28.693,27.033 
					31.819,29.87 31.819,33.706 				"/>
				<polyline fill="none" stroke="#FFFFFF" stroke-width="0.4242" stroke-miterlimit="10" points="34.624,16.128 45.594,16.128 
					48.848,19.382 				"/>
				
					<line fill="none" stroke="#FFFFFF" stroke-width="0.4242" stroke-miterlimit="10" x1="25.44" y1="36.727" x2="43.937" y2="36.727"/>
				<polyline fill="none" stroke="#FFFFFF" stroke-width="0.4242" stroke-miterlimit="10" points="46.617,32.775 40.558,32.775 
					36.73,36.727 				"/>
				<polyline fill="none" stroke="#FFFFFF" stroke-width="0.4242" stroke-miterlimit="10" points="54.525,12.179 54.525,26.076 
					57.078,29.393 57.078,36.092 				"/>
				<polyline fill="none" stroke="#FFFFFF" stroke-width="0.4242" stroke-miterlimit="10" points="54.525,18.679 57.584,21.996 
					63.709,21.996 				"/>
				<polyline fill="none" stroke="#FFFFFF" stroke-width="0.4242" stroke-miterlimit="10" points="58.415,16.128 60.805,18.519 
					70.15,18.679 71.297,20.339 				"/>
				<polyline fill="none" stroke="#FFFFFF" stroke-width="0.4242" stroke-miterlimit="10" points="22.898,42.214 28.127,42.214 
					32.145,46.103 36.928,46.103 				"/>
				<polyline fill="none" stroke="#FFFFFF" stroke-width="0.4242" stroke-miterlimit="10" points="45.533,41.765 39.025,41.765 
					34.69,46.103 				"/>
				<polyline fill="none" stroke="#FFFFFF" stroke-width="0.4242" stroke-miterlimit="10" points="99.348,52.788 80.469,52.788 
					78.174,55.464 				"/>
				<path fill="none" stroke="#FFFFFF" stroke-width="0.4242" stroke-miterlimit="10" d="M76.513,56.104
					c0,0.562,0.46,1.019,1.022,1.019c0.562,0,1.022-0.456,1.022-1.019c0-0.566-0.46-1.023-1.022-1.023
					C76.973,55.081,76.513,55.538,76.513,56.104z"/>
				<circle fill="none" stroke="#FFFFFF" stroke-width="0.4242" stroke-miterlimit="10" cx="77.535" cy="61.81" r="1.022"/>
				<circle fill="#FFFFFF" cx="92.97" cy="68.251" r="1.022"/>
				<circle fill="#FFFFFF" cx="96.095" cy="55.757" r="1.022"/>
				<circle fill="none" stroke="#FFFFFF" stroke-width="0.4242" stroke-miterlimit="10" cx="75.493" cy="54.126" r="1.021"/>
				<path fill="none" stroke="#FFFFFF" stroke-width="0.4242" stroke-miterlimit="10" d="M89.974,50.236
					c0,0.563,0.455,1.018,1.018,1.018c0.562,0,1.023-0.455,1.023-1.018c0-0.564-0.461-1.022-1.023-1.022
					C90.429,49.214,89.974,49.672,89.974,50.236z"/>
				<path fill="none" stroke="#FFFFFF" stroke-width="0.4242" stroke-miterlimit="10" d="M65.705,49.854
					c0,0.563,0.457,1.018,1.022,1.018c0.562,0,1.018-0.455,1.018-1.018c0-0.567-0.456-1.022-1.018-1.022
					C66.162,48.832,65.705,49.287,65.705,49.854z"/>
				<circle fill="none" stroke="#FFFFFF" stroke-width="0.4242" stroke-miterlimit="10" cx="52.722" cy="55.145" r="1.02"/>
				<path fill="none" stroke="#FFFFFF" stroke-width="0.4242" stroke-miterlimit="10" d="M59.3,56.166
					c0,0.562,0.456,1.022,1.018,1.022c0.568,0,1.022-0.46,1.022-1.022c0-0.562-0.455-1.021-1.022-1.021
					C59.755,55.145,59.3,55.604,59.3,56.166z"/>
				<path fill="#FFFFFF" d="M66.693,71.027c0,0.562,0.455,1.018,1.022,1.018c0.563,0,1.018-0.455,1.018-1.018
					c0-0.564-0.455-1.022-1.018-1.022C67.148,70.005,66.693,70.463,66.693,71.027z"/>
				<circle fill="#FFFFFF" cx="77.344" cy="66.88" r="1.022"/>
				<path fill="#FFFFFF" d="M77.344,75.873c0,0.562,0.456,1.021,1.022,1.021c0.563,0,1.018-0.458,1.018-1.021
					s-0.455-1.02-1.018-1.02C77.8,74.854,77.344,75.311,77.344,75.873z"/>
				<circle fill="#FFFFFF" cx="84.677" cy="80.211" r="1.02"/>
				<path fill="#FFFFFF" d="M79.001,70.835c0,0.563,0.457,1.019,1.023,1.019c0.562,0,1.019-0.455,1.019-1.019
					c0-0.562-0.456-1.021-1.019-1.021C79.458,69.813,79.001,70.272,79.001,70.835z"/>
				<path fill="none" stroke="#FFFFFF" stroke-width="0.4242" stroke-miterlimit="10" d="M80.852,62.957
					c0,0.566,0.456,1.021,1.022,1.021c0.562,0,1.018-0.455,1.018-1.021c0-0.562-0.455-1.019-1.018-1.019
					C81.307,61.938,80.852,62.395,80.852,62.957z"/>
				<path fill="none" stroke="#FFFFFF" stroke-width="0.4242" stroke-miterlimit="10" d="M85.573,62.957
					c0,0.566,0.455,1.021,1.017,1.021c0.566,0,1.022-0.455,1.022-1.021c0-0.562-0.456-1.019-1.022-1.019
					C86.028,61.938,85.573,62.395,85.573,62.957z"/>
				<circle fill="none" stroke="#FFFFFF" stroke-width="0.4242" stroke-miterlimit="10" cx="90.162" cy="62.833" r="1.021"/>
				
					<line fill="none" stroke="#FFFFFF" stroke-width="0.4242" stroke-miterlimit="10" x1="90.165" y1="52.788" x2="90.165" y2="62.001"/>
				<polyline fill="none" stroke="#FFFFFF" stroke-width="0.4242" stroke-miterlimit="10" points="89.142,58.751 81.077,58.751 
					78.174,61.141 				"/>
				
					<line fill="none" stroke="#FFFFFF" stroke-width="0.4242" stroke-miterlimit="10" x1="85.763" y1="62.957" x2="82.702" y2="62.957"/>
				<polyline fill="none" stroke="#FFFFFF" stroke-width="0.4242" stroke-miterlimit="10" points="96.095,56.485 96.095,61.141 
					92.97,63.979 92.97,67.813 				"/>
				<polyline fill="none" stroke="#FFFFFF" stroke-width="0.4242" stroke-miterlimit="10" points="90.165,50.236 79.193,50.236 
					75.94,53.486 				"/>
				
					<line fill="none" stroke="#FFFFFF" stroke-width="0.4242" stroke-miterlimit="10" x1="99.348" y1="70.835" x2="80.852" y2="70.835"/>
				<polyline fill="none" stroke="#FFFFFF" stroke-width="0.4242" stroke-miterlimit="10" points="78.174,66.88 84.23,66.88 
					88.057,70.835 				"/>
				<polyline fill="none" stroke="#FFFFFF" stroke-width="0.4242" stroke-miterlimit="10" points="70.264,46.288 70.264,60.185 
					67.715,63.501 67.715,70.196 				"/>
				<polyline fill="none" stroke="#FFFFFF" stroke-width="0.4242" stroke-miterlimit="10" points="70.264,52.788 67.204,56.104 
					61.083,56.104 				"/>
				<polyline fill="none" stroke="#FFFFFF" stroke-width="0.4242" stroke-miterlimit="10" points="65.951,50.236 63.558,52.625 
					54.216,52.788 53.069,54.446 				"/>
				<polyline fill="none" stroke="#FFFFFF" stroke-width="0.4242" stroke-miterlimit="10" points="99.348,76.321 94.116,76.321 
					90.098,80.211 85.315,80.211 				"/>
				<polyline fill="none" stroke="#FFFFFF" stroke-width="0.4242" stroke-miterlimit="10" points="79.255,75.873 85.763,75.873 
					90.098,80.211 				"/>
				<polyline fill="none" stroke="#FFFFFF" stroke-width="0.4242" stroke-miterlimit="10" points="108.692,36.96 89.812,36.96 
					87.519,34.281 				"/>
				<path fill="#FFFFFF" d="M85.86,33.645c0-0.566,0.457-1.023,1.019-1.023c0.566,0,1.023,0.457,1.023,1.023
					c0,0.562-0.457,1.018-1.023,1.018C86.316,34.663,85.86,34.207,85.86,33.645z"/>
				<path fill="#FFFFFF" d="M85.86,27.935c0-0.562,0.457-1.019,1.019-1.019c0.566,0,1.023,0.457,1.023,1.019
					c0,0.563-0.457,1.022-1.023,1.022C86.316,28.957,85.86,28.498,85.86,27.935z"/>
				<path fill="none" stroke="#FFFFFF" stroke-width="0.4242" stroke-miterlimit="10" d="M101.295,21.493
					c0-0.562,0.455-1.021,1.018-1.021c0.566,0,1.022,0.458,1.022,1.021c0,0.563-0.456,1.023-1.022,1.023
					C101.75,22.516,101.295,22.056,101.295,21.493z"/>
				<path fill="none" stroke="#FFFFFF" stroke-width="0.4242" stroke-miterlimit="10" d="M104.419,33.988
					c0-0.563,0.456-1.017,1.02-1.017c0.565,0,1.022,0.454,1.022,1.017s-0.457,1.022-1.022,1.022
					C104.875,35.01,104.419,34.551,104.419,33.988z"/>
				<path fill="#FFFFFF" d="M83.82,35.619c0-0.563,0.456-1.019,1.019-1.019c0.563,0,1.021,0.456,1.021,1.019
					c0,0.567-0.458,1.021-1.021,1.021C84.276,36.641,83.82,36.186,83.82,35.619z"/>
				<path fill="#FFFFFF" d="M99.317,39.512c0-0.566,0.455-1.021,1.021-1.021c0.562,0,1.019,0.455,1.019,1.021
					c0,0.563-0.457,1.019-1.019,1.019C99.772,40.531,99.317,40.075,99.317,39.512z"/>
				<circle fill="none" stroke="#FFFFFF" stroke-width="0.4242" stroke-miterlimit="10" cx="76.071" cy="39.894" r="1.021"/>
				<circle fill="#FFFFFF" cx="62.491" cy="34.601" r="1.02"/>
				<path fill="#FFFFFF" d="M68.643,33.578c0-0.563,0.456-1.019,1.022-1.019c0.563,0,1.019,0.456,1.019,1.019
					c0,0.566-0.456,1.022-1.019,1.022C69.099,34.601,68.643,34.144,68.643,33.578z"/>
				<path fill="#FFFFFF" d="M76.037,18.717c0-0.562,0.459-1.017,1.022-1.017c0.563,0,1.019,0.455,1.019,1.017
					c0,0.567-0.456,1.023-1.019,1.023C76.496,19.74,76.037,19.284,76.037,18.717z"/>
				<path fill="#FFFFFF" d="M85.67,22.864c0-0.562,0.455-1.021,1.018-1.021c0.566,0,1.022,0.459,1.022,1.021
					c0,0.564-0.456,1.022-1.022,1.022C86.125,23.887,85.67,23.428,85.67,22.864z"/>
				<circle fill="none" stroke="#FFFFFF" stroke-width="0.4242" stroke-miterlimit="10" cx="87.708" cy="13.872" r="1.02"/>
				<path fill="none" stroke="#FFFFFF" stroke-width="0.4242" stroke-miterlimit="10" d="M93.004,9.535
					c0-0.564,0.456-1.02,1.019-1.02s1.022,0.455,1.022,1.02c0,0.566-0.459,1.021-1.022,1.021S93.004,10.101,93.004,9.535z"/>
				<path fill="none" stroke="#FFFFFF" stroke-width="0.4242" stroke-miterlimit="10" d="M88.345,18.91
					c0-0.563,0.46-1.019,1.023-1.019c0.563,0,1.018,0.455,1.018,1.019c0,0.566-0.455,1.021-1.018,1.021
					C88.805,19.931,88.345,19.476,88.345,18.91z"/>
				<path fill="#FFFFFF" d="M90.195,26.788c0-0.563,0.459-1.022,1.022-1.022s1.021,0.459,1.021,1.022
					c0,0.562-0.458,1.019-1.021,1.019S90.195,27.35,90.195,26.788z"/>
				<path fill="none" stroke="#FFFFFF" stroke-width="0.4242" stroke-miterlimit="10" d="M94.916,26.788
					c0-0.563,0.456-1.022,1.022-1.022c0.562,0,1.019,0.459,1.019,1.022c0,0.562-0.457,1.019-1.019,1.019
					C95.372,27.807,94.916,27.35,94.916,26.788z"/>
				<circle fill="none" stroke="#FFFFFF" stroke-width="0.4242" stroke-miterlimit="10" cx="99.509" cy="26.916" r="1.021"/>
				
					<line fill="none" stroke="#FFFFFF" stroke-width="0.4242" stroke-miterlimit="10" x1="99.508" y1="36.96" x2="99.508" y2="27.744"/>
				<polyline fill="none" stroke="#FFFFFF" stroke-width="0.4242" stroke-miterlimit="10" points="98.488,30.998 90.42,30.998 
					87.519,28.604 				"/>
				
					<line fill="none" stroke="#FFFFFF" stroke-width="0.4242" stroke-miterlimit="10" x1="95.106" y1="26.788" x2="92.045" y2="26.788"/>
				<polyline fill="none" stroke="#FFFFFF" stroke-width="0.4242" stroke-miterlimit="10" points="105.439,33.263 105.439,28.604 
					102.313,25.766 102.313,21.934 				"/>
				<polyline fill="none" stroke="#FFFFFF" stroke-width="0.4242" stroke-miterlimit="10" points="99.508,39.512 88.538,39.512 
					85.288,36.257 				"/>
				
					<line fill="none" stroke="#FFFFFF" stroke-width="0.4242" stroke-miterlimit="10" x1="108.692" y1="18.91" x2="90.195" y2="18.91"/>
				<polyline fill="none" stroke="#FFFFFF" stroke-width="0.4242" stroke-miterlimit="10" points="87.519,22.864 93.577,22.864 
					97.405,18.91 				"/>
				<polyline fill="none" stroke="#FFFFFF" stroke-width="0.4242" stroke-miterlimit="10" points="79.61,43.457 79.61,29.56 
					77.059,26.244 77.059,19.549 				"/>
				<polyline fill="none" stroke="#FFFFFF" stroke-width="0.4242" stroke-miterlimit="10" points="79.61,36.96 76.547,33.645 
					70.427,33.645 				"/>
				<polyline fill="none" stroke="#FFFFFF" stroke-width="0.4242" stroke-miterlimit="10" points="75.721,39.512 73.327,37.12 
					63.985,36.96 62.838,35.302 				"/>
				<polyline fill="none" stroke="#FFFFFF" stroke-width="0.4242" stroke-miterlimit="10" points="108.692,13.426 103.463,13.426 
					99.445,9.535 94.662,9.535 				"/>
				<polyline fill="none" stroke="#FFFFFF" stroke-width="0.4242" stroke-miterlimit="10" points="88.603,13.872 95.106,13.872 
					99.445,9.535 				"/>
				<polyline fill="none" stroke="#FFFFFF" stroke-width="0.4242" stroke-miterlimit="10" points="24.812,78.28 43.691,78.28 
					45.985,75.6 				"/>
				<path fill="#FFFFFF" d="M47.644,74.962c0-0.565-0.456-1.021-1.019-1.021c-0.567,0-1.022,0.456-1.022,1.021
					c0,0.564,0.456,1.02,1.022,1.02C47.188,75.981,47.644,75.526,47.644,74.962z"/>
				<path fill="#FFFFFF" d="M47.644,69.254c0-0.562-0.456-1.023-1.019-1.023c-0.567,0-1.022,0.461-1.022,1.023
					s0.456,1.021,1.022,1.021C47.188,70.274,47.644,69.816,47.644,69.254z"/>
				<circle fill="#FFFFFF" cx="31.189" cy="62.812" r="1.021"/>
				<path fill="none" stroke="#FFFFFF" stroke-width="0.4242" stroke-miterlimit="10" d="M29.084,75.307
					c0-0.562-0.455-1.021-1.018-1.021c-0.567,0-1.022,0.459-1.022,1.021s0.455,1.022,1.022,1.022
					C28.63,76.329,29.084,75.869,29.084,75.307z"/>
				<path fill="#FFFFFF" d="M49.685,76.937c0-0.562-0.457-1.017-1.019-1.017c-0.566,0-1.021,0.455-1.021,1.017
					c0,0.566,0.456,1.022,1.021,1.022C49.228,77.959,49.685,77.503,49.685,76.937z"/>
				<path fill="none" stroke="#FFFFFF" stroke-width="0.4242" stroke-miterlimit="10" d="M34.187,80.827
					c0-0.562-0.454-1.019-1.022-1.019c-0.562,0-1.018,0.456-1.018,1.019c0,0.567,0.456,1.022,1.018,1.022
					C33.733,81.85,34.187,81.395,34.187,80.827z"/>
				<circle fill="#FFFFFF" cx="57.432" cy="81.212" r="1.02"/>
				<path fill="#FFFFFF" d="M72.034,75.92c0-0.565-0.456-1.023-1.019-1.023s-1.022,0.458-1.022,1.023
					c0,0.562,0.459,1.017,1.022,1.017S72.034,76.481,72.034,75.92z"/>
				<circle fill="#FFFFFF" cx="63.841" cy="74.896" r="1.02"/>
				<path fill="none" stroke="#FFFFFF" stroke-width="0.4242" stroke-miterlimit="10" d="M57.467,60.036
					c0-0.562-0.459-1.019-1.021-1.019c-0.563,0-1.023,0.456-1.023,1.019c0,0.567,0.46,1.022,1.023,1.022
					C57.008,61.059,57.467,60.604,57.467,60.036z"/>
				<path fill="none" stroke="#FFFFFF" stroke-width="0.4242" stroke-miterlimit="10" d="M47.834,64.184
					c0-0.562-0.455-1.021-1.018-1.021c-0.567,0-1.022,0.459-1.022,1.021c0,0.563,0.455,1.019,1.022,1.019
					C47.379,65.202,47.834,64.747,47.834,64.184z"/>
				<path fill="none" stroke="#FFFFFF" stroke-width="0.4242" stroke-miterlimit="10" d="M40.027,55.19
					c0-0.562-0.456-1.021-1.019-1.021c-0.566,0-1.021,0.459-1.021,1.021s0.455,1.021,1.021,1.021
					C39.571,56.212,40.027,55.753,40.027,55.19z"/>
				<path fill="none" stroke="#FFFFFF" stroke-width="0.4242" stroke-miterlimit="10" d="M37.954,50.852
					c0-0.562-0.455-1.018-1.018-1.018c-0.562,0-1.022,0.455-1.022,1.018c0,0.567,0.46,1.022,1.022,1.022
					C37.5,51.874,37.954,51.419,37.954,50.852z"/>
				<path fill="none" stroke="#FFFFFF" stroke-width="0.4242" stroke-miterlimit="10" d="M45.159,60.228
					c0-0.562-0.46-1.019-1.023-1.019c-0.563,0-1.021,0.456-1.021,1.019c0,0.567,0.458,1.022,1.021,1.022
					C44.699,61.25,45.159,60.795,45.159,60.228z"/>
				<path fill="#FFFFFF" d="M43.309,68.106c0-0.564-0.458-1.022-1.022-1.022c-0.562,0-1.021,0.458-1.021,1.022
					c0,0.562,0.459,1.018,1.021,1.018C42.85,69.124,43.309,68.669,43.309,68.106z"/>
				<path fill="#FFFFFF" d="M38.588,68.106c0-0.564-0.456-1.022-1.021-1.022c-0.563,0-1.019,0.458-1.019,1.022
					c0,0.562,0.456,1.018,1.019,1.018C38.132,69.124,38.588,68.669,38.588,68.106z"/>
				<path fill="#FFFFFF" d="M35.015,68.23c0-0.562-0.457-1.018-1.02-1.018c-0.562,0-1.022,0.455-1.022,1.018
					c0,0.568,0.461,1.023,1.022,1.023C34.559,69.254,35.015,68.799,35.015,68.23z"/>
				
					<line fill="none" stroke="#FFFFFF" stroke-width="0.4242" stroke-miterlimit="10" x1="33.996" y1="78.28" x2="33.996" y2="69.062"/>
				<polyline fill="none" stroke="#FFFFFF" stroke-width="0.4242" stroke-miterlimit="10" points="35.015,72.316 43.085,72.316 
					45.985,69.923 				"/>
				
					<line fill="none" stroke="#FFFFFF" stroke-width="0.4242" stroke-miterlimit="10" x1="38.397" y1="68.106" x2="41.457" y2="68.106"/>
				<polyline fill="none" stroke="#FFFFFF" stroke-width="0.4242" stroke-miterlimit="10" points="28.066,74.577 28.066,69.923 
					31.191,67.084 31.191,63.25 				"/>
				<polyline fill="none" stroke="#FFFFFF" stroke-width="0.4242" stroke-miterlimit="10" points="33.996,80.827 44.967,80.827 
					48.217,77.577 				"/>
				
					<line fill="none" stroke="#FFFFFF" stroke-width="0.4242" stroke-miterlimit="10" x1="24.812" y1="60.228" x2="43.309" y2="60.228"/>
				<polyline fill="none" stroke="#FFFFFF" stroke-width="0.4242" stroke-miterlimit="10" points="45.985,64.184 39.926,64.184 
					36.1,60.228 				"/>
				<polyline fill="none" stroke="#FFFFFF" stroke-width="0.4242" stroke-miterlimit="10" points="53.893,84.775 53.893,70.878 
					56.446,67.562 56.446,60.867 				"/>
				<polyline fill="none" stroke="#FFFFFF" stroke-width="0.4242" stroke-miterlimit="10" points="53.893,78.28 56.956,74.962 
					63.078,74.962 				"/>
				<polyline fill="none" stroke="#FFFFFF" stroke-width="0.4242" stroke-miterlimit="10" points="57.784,80.827 60.178,78.438 
					69.52,78.28 70.667,76.621 				"/>
				<polyline fill="none" stroke="#FFFFFF" stroke-width="0.4242" stroke-miterlimit="10" points="15.479,54.745 20.709,54.745 
					24.728,50.852 29.512,50.852 				"/>
				<polyline fill="none" stroke="#FFFFFF" stroke-width="0.4242" stroke-miterlimit="10" points="38.116,55.19 31.608,55.19 
					27.273,50.852 				"/>
			</g>
		</g>
	</g>
	<g>
		<g>
			<path fill="#F6F6F6" d="M107.35,34.989h19.343c3.091,0,5.629,1.564,7.617,4.69c0.7,1.39,1.053,2.696,1.053,3.929
				c0,2.106-0.424,3.739-1.266,4.898c2.355,2.074,3.531,4.369,3.531,6.879c0,4.373-1.985,7.396-5.955,9.064
				c-1.301,0.457-2.758,0.686-4.377,0.686H107.35l-0.16-0.157V35.146L107.35,34.989z M112.12,40.126v6.931h14.494
				c2.159,0,3.355-1.255,3.586-3.767c0-1.301-0.782-2.294-2.347-2.979l-1.239-0.185H112.12z M112.12,52.305v7.533h16.548
				c2.09,0,3.242-1.371,3.453-4.111c0-1.403-0.754-2.484-2.268-3.238l-1.186-0.184H112.12z"/>
			<path fill="#F6F6F6" d="M139.362,34.911h1.767c1.301,0,2.212,0.543,2.741,1.633l7.035,8.67l8.381-10.067l1.396-0.235h1.765
				c1.403,0,2.371,0.474,2.898,1.422l-11.489,14.808v7.988c0,2.897-1.327,4.83-3.98,5.796c-0.611,0.142-1.282,0.211-2,0.211
				l-0.078-0.079V51.141l-11.332-14.597C136.466,35.684,137.43,35.136,139.362,34.911z"/>
			<path fill="#F6F6F6" d="M195.661,34.911c0.09,0,0.132,0.07,0.132,0.21c0,2.495-1.247,4.252-3.743,5.272
				c-0.579,0.193-1.21,0.291-1.894,0.291h-5.906v17.556h-5.78l0.008-17.556h-6.162c-2.585,0-4.368-1.26-5.352-3.771
				c-0.194-0.579-0.291-1.228-0.291-1.949l0.078-0.052H195.661z"/>
			<path fill="#F6F6F6" d="M208.424,34.989h16.442L225,35.146c0,2.777-1.343,4.7-4.034,5.771c-0.599,0.193-1.353,0.29-2.268,0.29
				h-9.143c-3.178,0-5.755,1.503-7.722,4.506c-0.405,0.772-0.607,1.247-0.607,1.421h19.137l0.156,0.161
				c0,2.774-1.353,4.7-4.06,5.771c-0.594,0.193-1.343,0.291-2.241,0.291h-12.91c0.808,2,2.187,3.531,4.136,4.584
				c1.301,0.648,2.521,0.975,3.664,0.975h9.59c2.989,0,4.989,1.345,6.012,4.034c0.192,0.63,0.29,1.306,0.29,2.027l-0.134,0.157
				h-15.071c-6.029,0-10.629-2.828-13.812-8.485c-1.001-2.23-1.502-4.428-1.502-6.588c0-3.373,1.074-6.528,3.218-9.462
				c2.562-2.754,4.916-4.383,7.061-4.875C206.062,35.25,207.28,35.007,208.424,34.989z"/>
		</g>
		<rect x="178.47" y="60.256" fill="#F6F6F6" width="5.786" height="4.872"/>
	</g>
	<g>
		<circle fill="#FFFFFF" cx="63.539" cy="50.014" r="38.539"/>
		<g>
			<path d="M32.212,49.995c0-2.183,0.477-4.303,1.436-6.355c1.743-3.492,4.447-5.927,8.116-7.304
				c1.457-0.621,3.644-0.929,6.557-0.929h13.237v5.667H47.612c-4.198,0-7.125,1.806-8.783,5.419c-0.524,1.175-0.79,2.342-0.79,3.501
				c0,1.173,0.266,2.339,0.79,3.5c1.658,3.617,4.585,5.426,8.783,5.426h5.852v5.646h-5.144c-2.914,0-5.101-0.312-6.557-0.931
				c-3.668-1.364-6.373-3.793-8.116-7.286C32.689,54.3,32.212,52.184,32.212,49.995z M46.297,47.182h15.261v17.384H55.81V52.79
				h-9.513V47.182z"/>
		</g>
		<g>
			<path d="M71.137,42.1v-6.622h14.717h6.733v21.88v7.28H72.456h-6.699v-23.21l6.039,0.012v16.577h14.717V42.1H71.137z"/>
		</g>
		<g opacity="0.3">
			<defs>
				<circle id="SVGID_3_" opacity="0.3" cx="63.539" cy="49.987" r="38.539"/>
			</defs>
			<clipPath id="SVGID_4_">
				<use xlink:href="#SVGID_3_"  overflow="visible"/>
			</clipPath>
			<g clip-path="url(#SVGID_4_)">
				<polyline fill="none" stroke="#000000" stroke-width="0.4242" stroke-miterlimit="10" points="25.44,18.653 44.319,18.653 
					46.617,21.33 				"/>
				<circle cx="47.255" cy="21.969" r="1.021"/>
				<path d="M48.275,27.675c0,0.567-0.46,1.022-1.023,1.022c-0.562,0-1.018-0.455-1.018-1.022c0-0.562,0.457-1.019,1.018-1.019
					C47.815,26.657,48.275,27.113,48.275,27.675z"/>
				<circle cx="31.82" cy="34.118" r="1.02"/>
				<path fill="none" stroke="#000000" stroke-width="0.4242" stroke-miterlimit="10" d="M29.716,21.622
					c0,0.567-0.459,1.022-1.023,1.022c-0.562,0-1.019-0.455-1.019-1.022c0-0.562,0.456-1.018,1.019-1.018
					C29.257,20.604,29.716,21.06,29.716,21.622z"/>
				<path d="M50.315,19.991c0,0.563-0.46,1.023-1.022,1.023c-0.563,0-1.018-0.459-1.018-1.023c0-0.562,0.455-1.017,1.018-1.017
					C49.855,18.974,50.315,19.429,50.315,19.991z"/>
				<circle fill="none" stroke="#000000" stroke-width="0.4242" stroke-miterlimit="10" cx="33.795" cy="16.102" r="1.021"/>
				<path d="M59.084,15.719c0,0.563-0.456,1.018-1.022,1.018c-0.563,0-1.018-0.455-1.018-1.018s0.455-1.022,1.018-1.022
					C58.628,14.697,59.084,15.156,59.084,15.719z"/>
				<path d="M72.665,21.014c0,0.563-0.455,1.018-1.022,1.018c-0.562,0-1.018-0.455-1.018-1.018c0-0.566,0.456-1.023,1.018-1.023
					C72.21,19.991,72.665,20.447,72.665,21.014z"/>
				<path d="M65.489,22.032c0,0.563-0.455,1.023-1.018,1.023c-0.564,0-1.022-0.46-1.022-1.023c0-0.562,0.458-1.018,1.022-1.018
					C65.034,21.014,65.489,21.47,65.489,22.032z"/>
				<path fill="none" stroke="#000000" stroke-width="0.4242" stroke-miterlimit="10" d="M58.094,36.893
					c0,0.563-0.455,1.021-1.017,1.021c-0.567,0-1.022-0.458-1.022-1.021s0.455-1.019,1.022-1.019
					C57.64,35.874,58.094,36.33,58.094,36.893z"/>
				<path d="M48.466,32.749c0,0.563-0.459,1.018-1.022,1.018c-0.562,0-1.019-0.455-1.019-1.018c0-0.567,0.457-1.022,1.019-1.022
					C48.007,31.727,48.466,32.182,48.466,32.749z"/>
				<circle fill="none" stroke="#000000" stroke-width="0.4242" stroke-miterlimit="10" cx="46.424" cy="41.738" r="1.02"/>
				<path fill="none" stroke="#000000" stroke-width="0.4242" stroke-miterlimit="10" d="M38.586,46.077
					c0,0.562-0.455,1.021-1.022,1.021c-0.563,0-1.018-0.459-1.018-1.021c0-0.564,0.455-1.022,1.018-1.022
					C38.131,45.055,38.586,45.513,38.586,46.077z"/>
				<path fill="none" stroke="#000000" stroke-width="0.4242" stroke-miterlimit="10" d="M45.786,36.701
					c0,0.563-0.456,1.023-1.018,1.023c-0.568,0-1.023-0.459-1.023-1.023c0-0.562,0.455-1.021,1.023-1.021
					C45.331,35.68,45.786,36.138,45.786,36.701z"/>
				<path d="M43.937,28.826c0,0.562-0.456,1.018-1.019,1.018c-0.566,0-1.021-0.455-1.021-1.018c0-0.566,0.455-1.021,1.021-1.021
					C43.481,27.805,43.937,28.26,43.937,28.826z"/>
				<path d="M39.216,28.826c0,0.562-0.455,1.018-1.019,1.018c-0.562,0-1.022-0.455-1.022-1.018c0-0.566,0.46-1.021,1.022-1.021
					C38.761,27.805,39.216,28.26,39.216,28.826z"/>
				<path d="M35.646,28.697c0,0.562-0.455,1.022-1.021,1.022c-0.563,0-1.019-0.46-1.019-1.022c0-0.563,0.456-1.022,1.019-1.022
					C35.19,27.675,35.646,28.134,35.646,28.697z"/>
				
					<line fill="none" stroke="#000000" stroke-width="0.4242" stroke-miterlimit="10" x1="34.624" y1="18.653" x2="34.624" y2="27.868"/>
				<polyline fill="none" stroke="#000000" stroke-width="0.4242" stroke-miterlimit="10" points="35.646,24.616 43.711,24.616 
					46.617,27.007 				"/>
				
					<line fill="none" stroke="#000000" stroke-width="0.4242" stroke-miterlimit="10" x1="39.025" y1="28.826" x2="42.086" y2="28.826"/>
				<polyline fill="none" stroke="#000000" stroke-width="0.4242" stroke-miterlimit="10" points="28.693,22.351 28.693,27.007 
					31.819,29.844 31.819,33.68 				"/>
				<polyline fill="none" stroke="#000000" stroke-width="0.4242" stroke-miterlimit="10" points="34.624,16.102 45.594,16.102 
					48.849,19.355 				"/>
				
					<line fill="none" stroke="#000000" stroke-width="0.4242" stroke-miterlimit="10" x1="25.44" y1="36.701" x2="43.937" y2="36.701"/>
				<polyline fill="none" stroke="#000000" stroke-width="0.4242" stroke-miterlimit="10" points="46.617,32.749 40.558,32.749 
					36.73,36.701 				"/>
				<polyline fill="none" stroke="#000000" stroke-width="0.4242" stroke-miterlimit="10" points="54.525,12.152 54.525,26.05 
					57.078,29.367 57.078,36.065 				"/>
				<polyline fill="none" stroke="#000000" stroke-width="0.4242" stroke-miterlimit="10" points="54.525,18.653 57.584,21.969 
					63.71,21.969 				"/>
				<polyline fill="none" stroke="#000000" stroke-width="0.4242" stroke-miterlimit="10" points="58.415,16.102 60.805,18.493 
					70.151,18.653 71.297,20.312 				"/>
				<polyline fill="none" stroke="#000000" stroke-width="0.4242" stroke-miterlimit="10" points="22.898,42.188 28.127,42.188 
					32.145,46.076 36.928,46.076 				"/>
				<polyline fill="none" stroke="#000000" stroke-width="0.4242" stroke-miterlimit="10" points="45.533,41.738 39.025,41.738 
					34.69,46.076 				"/>
				<polyline fill="none" stroke="#000000" stroke-width="0.4242" stroke-miterlimit="10" points="99.348,52.762 80.469,52.762 
					78.174,55.438 				"/>
				<path fill="none" stroke="#000000" stroke-width="0.4242" stroke-miterlimit="10" d="M76.513,56.078
					c0,0.562,0.46,1.019,1.022,1.019c0.563,0,1.022-0.456,1.022-1.019c0-0.566-0.459-1.022-1.022-1.022
					C76.974,55.056,76.513,55.512,76.513,56.078z"/>
				<path fill="none" stroke="#000000" stroke-width="0.4242" stroke-miterlimit="10" d="M76.513,61.783
					c0,0.562,0.46,1.023,1.022,1.023c0.563,0,1.022-0.461,1.022-1.023s-0.459-1.018-1.022-1.018
					C76.974,60.766,76.513,61.221,76.513,61.783z"/>
				<circle cx="92.97" cy="68.225" r="1.022"/>
				<circle cx="96.095" cy="55.73" r="1.022"/>
				<circle fill="none" stroke="#000000" stroke-width="0.4242" stroke-miterlimit="10" cx="75.493" cy="54.1" r="1.021"/>
				<path fill="none" stroke="#000000" stroke-width="0.4242" stroke-miterlimit="10" d="M89.974,50.21
					c0,0.563,0.455,1.018,1.018,1.018c0.562,0,1.022-0.455,1.022-1.018c0-0.564-0.461-1.022-1.022-1.022
					C90.429,49.188,89.974,49.646,89.974,50.21z"/>
				<path fill="none" stroke="#000000" stroke-width="0.4242" stroke-miterlimit="10" d="M65.705,49.828
					c0,0.563,0.457,1.018,1.022,1.018c0.562,0,1.018-0.455,1.018-1.018c0-0.567-0.456-1.022-1.018-1.022
					C66.162,48.805,65.705,49.261,65.705,49.828z"/>
				<circle fill="none" stroke="#000000" stroke-width="0.4242" stroke-miterlimit="10" cx="52.722" cy="55.118" r="1.02"/>
				<path fill="none" stroke="#000000" stroke-width="0.4242" stroke-miterlimit="10" d="M59.3,56.141
					c0,0.562,0.456,1.021,1.018,1.021c0.568,0,1.022-0.46,1.022-1.021c0-0.562-0.455-1.022-1.022-1.022
					C59.755,55.118,59.3,55.578,59.3,56.141z"/>
				<path d="M66.693,71.001c0,0.562,0.456,1.018,1.022,1.018c0.562,0,1.019-0.455,1.019-1.018c0-0.563-0.456-1.022-1.019-1.022
					C67.149,69.979,66.693,70.438,66.693,71.001z"/>
				<circle cx="77.344" cy="66.854" r="1.022"/>
				<circle cx="78.365" cy="75.847" r="1.02"/>
				<circle cx="84.677" cy="80.186" r="1.021"/>
				<path d="M79.001,70.809c0,0.563,0.457,1.019,1.023,1.019c0.563,0,1.019-0.455,1.019-1.019c0-0.562-0.456-1.021-1.019-1.021
					C79.458,69.787,79.001,70.246,79.001,70.809z"/>
				<path fill="none" stroke="#000000" stroke-width="0.4242" stroke-miterlimit="10" d="M80.852,62.931
					c0,0.566,0.456,1.022,1.022,1.022c0.562,0,1.018-0.456,1.018-1.022c0-0.562-0.455-1.019-1.018-1.019
					C81.307,61.912,80.852,62.369,80.852,62.931z"/>
				<path fill="none" stroke="#000000" stroke-width="0.4242" stroke-miterlimit="10" d="M85.573,62.931
					c0,0.566,0.455,1.022,1.017,1.022c0.566,0,1.022-0.456,1.022-1.022c0-0.562-0.456-1.019-1.022-1.019
					C86.028,61.912,85.573,62.369,85.573,62.931z"/>
				<circle fill="none" stroke="#000000" stroke-width="0.4242" stroke-miterlimit="10" cx="90.162" cy="62.807" r="1.021"/>
				
					<line fill="none" stroke="#000000" stroke-width="0.4242" stroke-miterlimit="10" x1="90.165" y1="52.762" x2="90.165" y2="61.975"/>
				<polyline fill="none" stroke="#000000" stroke-width="0.4242" stroke-miterlimit="10" points="89.142,58.725 81.077,58.725 
					78.174,61.114 				"/>
				
					<line fill="none" stroke="#000000" stroke-width="0.4242" stroke-miterlimit="10" x1="85.763" y1="62.931" x2="82.702" y2="62.931"/>
				<polyline fill="none" stroke="#000000" stroke-width="0.4242" stroke-miterlimit="10" points="96.095,56.459 96.095,61.114 
					92.97,63.953 92.97,67.787 				"/>
				<polyline fill="none" stroke="#000000" stroke-width="0.4242" stroke-miterlimit="10" points="90.165,50.21 79.193,50.21 
					75.94,53.46 				"/>
				
					<line fill="none" stroke="#000000" stroke-width="0.4242" stroke-miterlimit="10" x1="99.348" y1="70.809" x2="80.852" y2="70.809"/>
				<polyline fill="none" stroke="#000000" stroke-width="0.4242" stroke-miterlimit="10" points="78.174,66.854 84.23,66.854 
					88.057,70.809 				"/>
				<polyline fill="none" stroke="#000000" stroke-width="0.4242" stroke-miterlimit="10" points="70.264,46.261 70.264,60.158 
					67.716,63.475 67.716,70.17 				"/>
				<polyline fill="none" stroke="#000000" stroke-width="0.4242" stroke-miterlimit="10" points="70.264,52.762 67.204,56.078 
					61.083,56.078 				"/>
				<polyline fill="none" stroke="#000000" stroke-width="0.4242" stroke-miterlimit="10" points="65.951,50.21 63.558,52.599 
					54.216,52.762 53.069,54.42 				"/>
				<polyline fill="none" stroke="#000000" stroke-width="0.4242" stroke-miterlimit="10" points="99.348,76.295 94.117,76.295 
					90.099,80.185 85.315,80.185 				"/>
				<polyline fill="none" stroke="#000000" stroke-width="0.4242" stroke-miterlimit="10" points="79.255,75.847 85.763,75.847 
					90.099,80.185 				"/>
				<polyline fill="none" stroke="#000000" stroke-width="0.4242" stroke-miterlimit="10" points="108.692,36.934 89.813,36.934 
					87.519,34.254 				"/>
				<path d="M85.86,33.618c0-0.566,0.457-1.023,1.019-1.023c0.566,0,1.023,0.457,1.023,1.023c0,0.562-0.457,1.018-1.023,1.018
					C86.316,34.636,85.86,34.18,85.86,33.618z"/>
				<path d="M85.86,27.908c0-0.562,0.457-1.019,1.019-1.019c0.566,0,1.023,0.457,1.023,1.019c0,0.563-0.457,1.022-1.023,1.022
					C86.316,28.931,85.86,28.471,85.86,27.908z"/>
				<path fill="none" stroke="#000000" stroke-width="0.4242" stroke-miterlimit="10" d="M101.295,21.467
					c0-0.562,0.455-1.021,1.018-1.021c0.566,0,1.022,0.459,1.022,1.021c0,0.563-0.456,1.023-1.022,1.023
					C101.75,22.49,101.295,22.03,101.295,21.467z"/>
				<path fill="none" stroke="#000000" stroke-width="0.4242" stroke-miterlimit="10" d="M104.42,33.961
					c0-0.563,0.455-1.017,1.019-1.017c0.565,0,1.022,0.454,1.022,1.017s-0.457,1.022-1.022,1.022
					C104.875,34.984,104.42,34.524,104.42,33.961z"/>
				<path d="M83.82,35.593c0-0.563,0.456-1.019,1.019-1.019c0.563,0,1.021,0.456,1.021,1.019c0,0.567-0.458,1.021-1.021,1.021
					C84.276,36.614,83.82,36.16,83.82,35.593z"/>
				<path d="M99.317,39.485c0-0.565,0.455-1.021,1.021-1.021c0.562,0,1.019,0.456,1.019,1.021c0,0.563-0.457,1.019-1.019,1.019
					C99.772,40.504,99.317,40.048,99.317,39.485z"/>
				<circle fill="none" stroke="#000000" stroke-width="0.4242" stroke-miterlimit="10" cx="76.071" cy="39.868" r="1.021"/>
				<circle cx="62.491" cy="34.574" r="1.02"/>
				<path d="M68.644,33.552c0-0.563,0.455-1.019,1.021-1.019c0.564,0,1.019,0.456,1.019,1.019c0,0.565-0.455,1.022-1.019,1.022
					C69.099,34.574,68.644,34.118,68.644,33.552z"/>
				<path d="M76.037,18.691c0-0.562,0.459-1.017,1.022-1.017c0.563,0,1.019,0.455,1.019,1.017c0,0.567-0.456,1.023-1.019,1.023
					C76.496,19.714,76.037,19.258,76.037,18.691z"/>
				<path d="M85.67,22.838c0-0.562,0.455-1.021,1.018-1.021c0.566,0,1.022,0.459,1.022,1.021c0,0.563-0.456,1.022-1.022,1.022
					C86.125,23.86,85.67,23.402,85.67,22.838z"/>
				<circle fill="none" stroke="#000000" stroke-width="0.4242" stroke-miterlimit="10" cx="87.708" cy="13.846" r="1.02"/>
				<path fill="none" stroke="#000000" stroke-width="0.4242" stroke-miterlimit="10" d="M93.004,9.508
					c0-0.564,0.456-1.02,1.019-1.02s1.022,0.455,1.022,1.02c0,0.566-0.459,1.021-1.022,1.021S93.004,10.074,93.004,9.508z"/>
				<path fill="none" stroke="#000000" stroke-width="0.4242" stroke-miterlimit="10" d="M88.345,18.883
					c0-0.563,0.461-1.018,1.023-1.018c0.563,0,1.018,0.455,1.018,1.018c0,0.566-0.455,1.021-1.018,1.021
					C88.806,19.904,88.345,19.449,88.345,18.883z"/>
				<circle cx="91.217" cy="26.762" r="1.021"/>
				<path fill="none" stroke="#000000" stroke-width="0.4242" stroke-miterlimit="10" d="M94.917,26.762
					c0-0.563,0.455-1.022,1.021-1.022c0.562,0,1.019,0.459,1.019,1.022c0,0.562-0.456,1.019-1.019,1.019
					C95.372,27.78,94.917,27.324,94.917,26.762z"/>
				<circle fill="none" stroke="#000000" stroke-width="0.4242" stroke-miterlimit="10" cx="99.51" cy="26.89" r="1.022"/>
				
					<line fill="none" stroke="#000000" stroke-width="0.4242" stroke-miterlimit="10" x1="99.508" y1="36.934" x2="99.508" y2="27.718"/>
				<polyline fill="none" stroke="#000000" stroke-width="0.4242" stroke-miterlimit="10" points="98.488,30.971 90.42,30.971 
					87.519,28.578 				"/>
				
					<line fill="none" stroke="#000000" stroke-width="0.4242" stroke-miterlimit="10" x1="95.107" y1="26.762" x2="92.045" y2="26.762"/>
				<polyline fill="none" stroke="#000000" stroke-width="0.4242" stroke-miterlimit="10" points="105.439,33.237 105.439,28.578 
					102.313,25.74 102.313,21.908 				"/>
				<polyline fill="none" stroke="#000000" stroke-width="0.4242" stroke-miterlimit="10" points="99.508,39.485 88.538,39.485 
					85.288,36.231 				"/>
				
					<line fill="none" stroke="#000000" stroke-width="0.4242" stroke-miterlimit="10" x1="108.692" y1="18.883" x2="90.196" y2="18.883"/>
				<polyline fill="none" stroke="#000000" stroke-width="0.4242" stroke-miterlimit="10" points="87.519,22.838 93.578,22.838 
					97.405,18.883 				"/>
				<polyline fill="none" stroke="#000000" stroke-width="0.4242" stroke-miterlimit="10" points="79.611,43.431 79.611,29.534 
					77.059,26.218 77.059,19.522 				"/>
				<polyline fill="none" stroke="#000000" stroke-width="0.4242" stroke-miterlimit="10" points="79.611,36.934 76.548,33.618 
					70.427,33.618 				"/>
				<polyline fill="none" stroke="#000000" stroke-width="0.4242" stroke-miterlimit="10" points="75.721,39.485 73.327,37.093 
					63.985,36.934 62.838,35.276 				"/>
				<polyline fill="none" stroke="#000000" stroke-width="0.4242" stroke-miterlimit="10" points="108.692,13.4 103.463,13.4 
					99.445,9.508 94.662,9.508 				"/>
				<polyline fill="none" stroke="#000000" stroke-width="0.4242" stroke-miterlimit="10" points="88.604,13.846 95.107,13.846 
					99.445,9.508 				"/>
				<polyline fill="none" stroke="#000000" stroke-width="0.4242" stroke-miterlimit="10" points="24.812,78.254 43.691,78.254 
					45.985,75.573 				"/>
				<circle cx="46.624" cy="74.936" r="1.021"/>
				<circle cx="46.624" cy="69.228" r="1.021"/>
				<circle cx="31.189" cy="62.786" r="1.021"/>
				<path fill="none" stroke="#000000" stroke-width="0.4242" stroke-miterlimit="10" d="M29.084,75.281
					c0-0.563-0.455-1.022-1.018-1.022c-0.567,0-1.022,0.459-1.022,1.022c0,0.562,0.455,1.021,1.022,1.021
					C28.63,76.303,29.084,75.843,29.084,75.281z"/>
				<path d="M49.685,76.91c0-0.562-0.457-1.017-1.019-1.017c-0.566,0-1.021,0.455-1.021,1.017c0,0.566,0.455,1.022,1.021,1.022
					C49.228,77.933,49.685,77.477,49.685,76.91z"/>
				<path fill="none" stroke="#000000" stroke-width="0.4242" stroke-miterlimit="10" d="M34.187,80.801
					c0-0.562-0.454-1.019-1.022-1.019c-0.562,0-1.018,0.456-1.018,1.019c0,0.567,0.456,1.022,1.018,1.022
					C33.733,81.823,34.187,81.368,34.187,80.801z"/>
				<circle cx="57.432" cy="81.186" r="1.02"/>
				<path d="M72.034,75.894c0-0.565-0.455-1.022-1.019-1.022c-0.563,0-1.021,0.457-1.021,1.022c0,0.562,0.458,1.017,1.021,1.017
					C71.579,76.91,72.034,76.455,72.034,75.894z"/>
				<circle cx="63.841" cy="74.871" r="1.02"/>
				<path fill="none" stroke="#000000" stroke-width="0.4242" stroke-miterlimit="10" d="M57.467,60.01
					c0-0.562-0.458-1.018-1.021-1.018s-1.022,0.455-1.022,1.018c0,0.567,0.459,1.022,1.022,1.022S57.467,60.577,57.467,60.01z"/>
				<path fill="none" stroke="#000000" stroke-width="0.4242" stroke-miterlimit="10" d="M47.834,64.157
					c0-0.562-0.455-1.021-1.018-1.021c-0.566,0-1.022,0.459-1.022,1.021c0,0.563,0.456,1.019,1.022,1.019
					C47.379,65.176,47.834,64.721,47.834,64.157z"/>
				<path fill="none" stroke="#000000" stroke-width="0.4242" stroke-miterlimit="10" d="M40.027,55.164
					c0-0.562-0.456-1.021-1.019-1.021c-0.566,0-1.021,0.459-1.021,1.021s0.455,1.021,1.021,1.021
					C39.571,56.186,40.027,55.727,40.027,55.164z"/>
				<path fill="none" stroke="#000000" stroke-width="0.4242" stroke-miterlimit="10" d="M37.954,50.826
					c0-0.562-0.455-1.018-1.018-1.018c-0.562,0-1.022,0.455-1.022,1.018c0,0.567,0.46,1.022,1.022,1.022
					C37.5,51.848,37.954,51.393,37.954,50.826z"/>
				<path fill="none" stroke="#000000" stroke-width="0.4242" stroke-miterlimit="10" d="M45.159,60.201
					c0-0.562-0.46-1.019-1.023-1.019c-0.563,0-1.021,0.456-1.021,1.019c0,0.567,0.458,1.022,1.021,1.022
					C44.699,61.224,45.159,60.769,45.159,60.201z"/>
				<path d="M43.309,68.08c0-0.564-0.458-1.021-1.022-1.021c-0.562,0-1.021,0.457-1.021,1.021c0,0.562,0.459,1.019,1.021,1.019
					C42.85,69.099,43.309,68.643,43.309,68.08z"/>
				<circle cx="37.568" cy="68.08" r="1.02"/>
				<path d="M35.015,68.204c0-0.562-0.457-1.018-1.02-1.018c-0.562,0-1.022,0.455-1.022,1.018c0,0.568,0.461,1.023,1.022,1.023
					C34.559,69.228,35.015,68.772,35.015,68.204z"/>
				
					<line fill="none" stroke="#000000" stroke-width="0.4242" stroke-miterlimit="10" x1="33.996" y1="78.254" x2="33.996" y2="69.036"/>
				<polyline fill="none" stroke="#000000" stroke-width="0.4242" stroke-miterlimit="10" points="35.015,72.29 43.085,72.29 
					45.985,69.896 				"/>
				
					<line fill="none" stroke="#000000" stroke-width="0.4242" stroke-miterlimit="10" x1="38.397" y1="68.08" x2="41.457" y2="68.08"/>
				<polyline fill="none" stroke="#000000" stroke-width="0.4242" stroke-miterlimit="10" points="28.066,74.551 28.066,69.896 
					31.191,67.059 31.191,63.224 				"/>
				<polyline fill="none" stroke="#000000" stroke-width="0.4242" stroke-miterlimit="10" points="33.996,80.801 44.967,80.801 
					48.217,77.551 				"/>
				
					<line fill="none" stroke="#000000" stroke-width="0.4242" stroke-miterlimit="10" x1="24.812" y1="60.201" x2="43.309" y2="60.201"/>
				<polyline fill="none" stroke="#000000" stroke-width="0.4242" stroke-miterlimit="10" points="45.985,64.157 39.926,64.157 
					36.1,60.201 				"/>
				<polyline fill="none" stroke="#000000" stroke-width="0.4242" stroke-miterlimit="10" points="53.893,84.749 53.893,70.852 
					56.446,67.536 56.446,60.841 				"/>
				<polyline fill="none" stroke="#000000" stroke-width="0.4242" stroke-miterlimit="10" points="53.893,78.254 56.956,74.936 
					63.078,74.936 				"/>
				<polyline fill="none" stroke="#000000" stroke-width="0.4242" stroke-miterlimit="10" points="57.784,80.801 60.178,78.411 
					69.52,78.254 70.667,76.595 				"/>
				<polyline fill="none" stroke="#000000" stroke-width="0.4242" stroke-miterlimit="10" points="15.479,54.719 20.709,54.719 
					24.728,50.826 29.512,50.826 				"/>
				<polyline fill="none" stroke="#000000" stroke-width="0.4242" stroke-miterlimit="10" points="38.116,55.164 31.608,55.164 
					27.273,50.826 				"/>
			</g>
		</g>
	</g>
</g>
</svg>
